<svg xmlns="http://www.w3.org/2000/svg" viewBox="0 0 10.83 7.51"><defs><style>.cls-1{fill:#ff4237;}</style></defs><title>Asset 2</title><g id="Layer_2" data-name="Layer 2"><g id="OBJECTS"><path class="cls-1" d="M10,7.51h0a.86.86,0,0,0,.81-1.13l-2-5.8A.86.86,0,0,0,8,0H8a.86.86,0,0,0-.81,1.13l2,5.8A.84.84,0,0,0,10,7.51Z"/><path class="cls-1" d="M6.4,7.51h0a.85.85,0,0,0,.81-1.13l-2-5.8A.86.86,0,0,0,4.43,0h0a.86.86,0,0,0-.82,1.13l2,5.8A.85.85,0,0,0,6.4,7.51Z"/><path class="cls-1" d="M2.83,7.51h0a.85.85,0,0,0,.81-1.13l-2-5.8A.86.86,0,0,0,.86,0h0A.85.85,0,0,0,.05,1.13l2,5.8A.85.85,0,0,0,2.83,7.51Z"/></g></g></svg>