<svg width="1164" height="688" viewBox="0 0 1164 688" fill="none" xmlns="http://www.w3.org/2000/svg">
<rect width="1164" height="688" fill="#071324"/>
<mask id="mask0_1301_13648" style="mask-type:alpha" maskUnits="userSpaceOnUse" x="0" y="0" width="1164" height="688">
<rect width="1164" height="688" fill="#EAD9CC"/>
</mask>
<g mask="url(#mask0_1301_13648)">
<g filter="url(#filter0_d_1301_13648)">
<rect width="566.892" height="713.631" rx="24" transform="matrix(0.902607 -0.430465 0.707153 0.707061 462.332 106.451)" fill="#0F1E34"/>
</g>
<path fill-rule="evenodd" clip-rule="evenodd" d="M838.563 174.508C837.001 172.946 837.351 170.909 839.345 169.958L1060.64 64.4184C1062.64 63.4674 1065.52 63.9628 1067.08 65.5248L1080.88 79.3251C1082.44 80.8871 1082.09 82.9243 1080.1 83.8752L858.804 189.415C856.81 190.366 853.927 189.87 852.365 188.308L838.563 174.508Z" fill="#465E82"/>
<path fill-rule="evenodd" clip-rule="evenodd" d="M869.581 205.522C868.8 204.741 868.975 203.722 869.972 203.246L995.523 143.369C996.52 142.894 997.962 143.141 998.743 143.922L1008.89 154.065C1009.67 154.846 1009.49 155.865 1008.5 156.34L882.945 216.218C881.948 216.693 880.506 216.446 879.725 215.665L869.581 205.522Z" fill="#213450"/>
<path fill-rule="evenodd" clip-rule="evenodd" d="M887.743 223.682C886.962 222.901 887.137 221.882 888.134 221.407L1104.76 118.094C1105.76 117.619 1107.2 117.866 1107.98 118.647L1118.13 128.79C1118.91 129.571 1118.73 130.59 1117.73 131.065L901.107 234.378C900.11 234.853 898.668 234.606 897.887 233.825L887.743 223.682Z" fill="#213450"/>
<path fill-rule="evenodd" clip-rule="evenodd" d="M905.905 241.84C905.124 241.059 905.299 240.04 906.296 239.565L1076.56 158.365C1077.55 157.889 1079 158.137 1079.78 158.918L1089.92 169.061C1090.7 169.842 1090.53 170.86 1089.53 171.336L919.269 252.536C918.272 253.012 916.83 252.764 916.049 251.983L905.905 241.84Z" fill="#213450"/>
<rect width="139.43" height="124.748" rx="8" transform="matrix(0.902607 -0.430465 0.707153 0.707061 675.827 244.109)" fill="#213450"/>
<path d="M783.857 234.74L750.737 250.535L750.736 250.535C747.081 252.282 746.439 256.016 749.301 258.883L770.057 279.636L770.055 279.636C772.923 282.499 778.207 283.406 781.867 281.666L814.987 265.87L814.986 265.871C818.64 264.124 819.282 260.39 816.421 257.523L795.665 236.77C792.796 233.907 787.511 232.999 783.851 234.74L783.857 234.74ZM780.766 243.877L780.765 243.877C783.507 242.568 787.475 243.25 789.625 245.399C791.773 247.548 791.291 250.352 788.549 251.66C785.805 252.968 781.837 252.286 779.689 250.138L779.688 250.138C777.541 247.989 778.023 245.187 780.762 243.877L780.766 243.877ZM779.277 279.071L779.276 279.071C777.445 279.943 774.802 279.489 773.368 278.056L767.885 272.573L770.866 261.058L770.865 261.057C771.464 258.754 774.515 257.398 777.829 257.963L789.807 260.011L787.178 275.3L779.277 279.071ZM813.114 259.102C814.547 260.534 814.226 262.403 812.397 263.275L791.865 273.067L794.588 257.231L794.587 257.23C795.2 255.129 797.891 253.837 800.954 254.174L809.046 255.035L813.114 259.102Z" fill="#465E82"/>
<path fill-rule="evenodd" clip-rule="evenodd" d="M946.238 282.17C944.676 280.608 945.026 278.571 947.02 277.62L1168.32 172.081C1170.31 171.13 1173.19 171.625 1174.76 173.187L1188.56 186.987C1190.12 188.549 1189.77 190.586 1187.78 191.537L966.479 297.077C964.485 298.028 961.602 297.532 960.04 295.97L946.238 282.17Z" fill="#465E82"/>
<path fill-rule="evenodd" clip-rule="evenodd" d="M977.256 313.184C976.475 312.403 976.65 311.384 977.647 310.909L1103.2 251.031C1104.2 250.556 1105.64 250.803 1106.42 251.584L1116.56 261.727C1117.34 262.508 1117.17 263.527 1116.17 264.003L990.62 323.88C989.623 324.355 988.182 324.108 987.4 323.327L977.256 313.184Z" fill="#213450"/>
<path fill-rule="evenodd" clip-rule="evenodd" d="M995.418 331.344C994.637 330.563 994.812 329.544 995.809 329.069L1212.44 225.756C1213.43 225.281 1214.88 225.528 1215.66 226.309L1225.8 236.452C1226.58 237.233 1226.41 238.252 1225.41 238.727L1008.78 342.04C1007.79 342.515 1006.34 342.268 1005.56 341.487L995.418 331.344Z" fill="#213450"/>
<path fill-rule="evenodd" clip-rule="evenodd" d="M1013.58 349.502C1012.8 348.721 1012.97 347.702 1013.97 347.227L1184.23 266.027C1185.23 265.551 1186.67 265.799 1187.45 266.58L1197.6 276.723C1198.38 277.504 1198.2 278.523 1197.21 278.998L1026.94 360.198C1025.95 360.674 1024.51 360.426 1023.72 359.645L1013.58 349.502Z" fill="#213450"/>
<rect width="139.43" height="124.748" rx="8" transform="matrix(0.902607 -0.430465 0.707153 0.707061 783.502 351.771)" fill="#213450"/>
<path d="M891.532 342.402L858.412 358.197L858.411 358.198C854.756 359.944 854.114 363.679 856.976 366.545L877.732 387.298L877.731 387.298C880.598 390.161 885.883 391.068 889.543 389.328L922.663 373.532L922.662 373.533C926.315 371.786 926.957 368.052 924.097 365.186L903.34 344.432C900.471 341.569 895.186 340.661 891.527 342.402L891.532 342.402ZM888.441 351.539L888.44 351.539C891.182 350.23 895.151 350.912 897.3 353.061C899.449 355.21 898.967 358.014 896.224 359.322C893.48 360.63 889.513 359.948 887.364 357.8L887.363 357.8C885.217 355.651 885.698 352.85 888.437 351.54L888.441 351.539ZM886.952 386.733L886.951 386.733C885.12 387.605 882.477 387.151 881.044 385.718L875.56 380.235L878.541 368.72L878.54 368.719C879.14 366.416 882.19 365.06 885.505 365.625L897.482 367.673L894.854 382.962L886.952 386.733ZM920.79 366.764C922.222 368.196 921.901 370.065 920.072 370.938L899.541 380.729L902.263 364.893L902.262 364.892C902.875 362.792 905.567 361.5 908.629 361.836L916.722 362.697L920.79 366.764Z" fill="#465E82"/>
<path fill-rule="evenodd" clip-rule="evenodd" d="M1053.91 389.83C1052.35 388.268 1052.7 386.231 1054.7 385.28L1275.99 279.741C1277.99 278.79 1280.87 279.285 1282.43 280.847L1296.23 294.647C1297.8 296.209 1297.45 298.247 1295.45 299.197L1074.15 404.737C1072.16 405.688 1069.28 405.193 1067.72 403.631L1053.91 389.83Z" fill="#465E82"/>
<path fill-rule="evenodd" clip-rule="evenodd" d="M1084.93 420.844C1084.15 420.063 1084.33 419.044 1085.32 418.569L1210.87 358.691C1211.87 358.216 1213.31 358.464 1214.09 359.245L1224.24 369.388C1225.02 370.169 1224.84 371.187 1223.85 371.663L1098.3 431.54C1097.3 432.015 1095.86 431.768 1095.08 430.987L1084.93 420.844Z" fill="#213450"/>
<path fill-rule="evenodd" clip-rule="evenodd" d="M1103.09 439.004C1102.31 438.223 1102.49 437.204 1103.48 436.729L1320.11 333.416C1321.11 332.941 1322.55 333.188 1323.33 333.969L1333.48 344.112C1334.26 344.893 1334.08 345.912 1333.09 346.388L1116.46 449.7C1115.46 450.176 1114.02 449.928 1113.24 449.147L1103.09 439.004Z" fill="#213450"/>
<path fill-rule="evenodd" clip-rule="evenodd" d="M1121.26 457.162C1120.47 456.381 1120.65 455.363 1121.65 454.887L1291.91 373.687C1292.91 373.212 1294.35 373.459 1295.13 374.24L1305.27 384.383C1306.05 385.164 1305.88 386.183 1304.88 386.658L1134.62 467.858C1133.62 468.334 1132.18 468.086 1131.4 467.305L1121.26 457.162Z" fill="#213450"/>
<rect width="139.43" height="124.748" rx="8" transform="matrix(0.902607 -0.430465 0.707153 0.707061 891.177 459.432)" fill="#213450"/>
<path d="M999.208 450.062L966.088 465.857L966.087 465.858C962.431 467.605 961.789 471.339 964.652 474.205L985.408 494.959L985.406 494.958C988.274 497.821 993.558 498.729 997.218 496.988L1030.34 481.193L1030.34 481.193C1033.99 479.446 1034.63 475.712 1031.77 472.846L1011.02 452.092C1008.15 449.229 1002.86 448.322 999.202 450.062L999.208 450.062ZM996.117 459.199L996.116 459.2C998.858 457.891 1002.83 458.572 1004.98 460.721C1007.12 462.87 1006.64 465.674 1003.9 466.982C1001.16 468.291 997.188 467.608 995.039 465.46L995.038 465.461C992.892 463.311 993.373 460.51 996.113 459.2L996.117 459.199ZM994.627 494.393L994.626 494.394C992.796 495.265 990.152 494.811 988.719 493.378L983.236 487.895L986.217 476.38L986.216 476.379C986.815 474.076 989.865 472.721 993.18 473.285L1005.16 475.333L1002.53 490.622L994.627 494.393ZM1028.46 474.424C1029.9 475.857 1029.58 477.726 1027.75 478.598L1007.22 488.389L1009.94 472.553L1009.94 472.552C1010.55 470.452 1013.24 469.16 1016.3 469.496L1024.4 470.357L1028.46 474.424Z" fill="#465E82"/>
<path fill-rule="evenodd" clip-rule="evenodd" d="M664.208 83.3204C662.645 81.7584 662.995 79.7213 664.989 78.7703L866.415 -17.2923C868.409 -18.2433 871.292 -17.7479 872.854 -16.1859L886.656 -2.38556C888.219 -0.823561 887.868 1.21358 885.875 2.16454L684.449 98.2272C682.455 99.1781 679.572 98.6828 678.01 97.1208L664.208 83.3204Z" fill="#465E82"/>
<path fill-rule="evenodd" clip-rule="evenodd" d="M701.796 138.023C701.015 137.242 701.19 136.224 702.187 135.748L928.75 27.6974C929.747 27.2219 931.189 27.4696 931.97 28.2506L944.709 40.9878C945.49 41.7688 945.315 42.7874 944.318 43.2629L717.755 151.314C716.758 151.789 715.316 151.542 714.535 150.761L701.796 138.023Z" fill="#213450"/>
<path fill-rule="evenodd" clip-rule="evenodd" d="M649.936 130.188C649.155 129.407 649.33 128.388 650.327 127.913L936.503 -8.56891C937.5 -9.04439 938.942 -8.79671 939.723 -8.01571L952.462 4.72152C953.243 5.50252 953.068 6.52108 952.071 6.99657L665.894 143.478C664.897 143.953 663.456 143.706 662.675 142.925L649.936 130.188Z" fill="#213450"/>
<g filter="url(#filter1_d_1301_13648)">
<rect width="1770.39" height="842.048" rx="24" transform="matrix(0.902607 -0.430465 0.707153 0.707061 -1097.12 1009.74)" fill="#0F1E34"/>
</g>
<path fill-rule="evenodd" clip-rule="evenodd" d="M237.492 764.418C235.93 762.856 236.28 760.819 238.274 759.868L641.723 567.458C643.717 566.507 646.6 567.002 648.162 568.564L661.964 582.365C663.526 583.927 663.176 585.964 661.182 586.915L257.733 779.325C255.739 780.276 252.857 779.78 251.294 778.218L237.492 764.418Z" fill="#465E82"/>
<path fill-rule="evenodd" clip-rule="evenodd" d="M286.672 813.592C285.891 812.811 286.066 811.792 287.063 811.317L617.95 653.513C618.947 653.037 620.388 653.285 621.169 654.066L631.313 664.209C632.095 664.99 631.92 666.008 630.923 666.484L300.036 824.288C299.039 824.764 297.598 824.516 296.816 823.735L286.672 813.592Z" fill="#213450"/>
<rect width="530.2" height="289.855" rx="8" transform="matrix(0.902607 -0.430465 0.707153 0.707061 11.5293 538.484)" fill="#213450"/>
<rect width="530.2" height="289.855" rx="8" transform="matrix(0.902607 -0.430465 0.707153 0.707061 -511.743 788.039)" fill="#213450"/>
<path d="M354.814 482.059L292.122 511.957L292.121 511.958C285.202 515.265 284.042 522.388 289.528 527.882L329.31 567.659L329.307 567.659C334.803 573.146 344.861 574.919 351.789 571.624L414.48 541.726L414.478 541.727C421.394 538.42 422.554 531.296 417.071 525.803L377.288 486.026C371.789 480.538 361.731 478.765 354.803 482.059L354.814 482.059ZM349.087 499.478L349.085 499.479C354.275 497.001 361.828 498.333 365.948 502.452C370.066 506.57 369.195 511.919 364.003 514.395C358.81 516.872 351.258 515.539 347.14 511.422L347.138 511.423C343.024 507.303 343.894 501.959 349.079 499.479L349.087 499.478ZM346.824 566.651L346.821 566.652C343.356 568.302 338.325 567.415 335.578 564.668L325.068 554.16L330.548 532.2L330.546 532.198C331.648 527.806 337.423 525.242 343.733 526.346L366.529 530.347L361.78 559.513L346.824 566.651ZM410.811 528.791C413.557 531.536 412.977 535.102 409.515 536.753L370.652 555.287L375.571 525.076L375.569 525.074C376.7 521.07 381.795 518.624 387.62 519.29L403.015 520.995L410.811 528.791Z" fill="#465E82"/>
<rect width="1109.94" height="56.8704" rx="8" transform="matrix(0.902607 -0.430465 0.707153 0.707061 -138.123 1161.61)" fill="#213450"/>
<rect width="1109.94" height="56.8704" rx="8" transform="matrix(0.902607 -0.430465 0.707153 0.707061 -190.015 1109.73)" fill="#213450"/>
<path fill-rule="evenodd" clip-rule="evenodd" d="M491.352 807.936C490.571 807.155 490.746 806.136 491.743 805.661L756.393 679.446C757.39 678.97 758.831 679.218 759.612 679.999L769.757 690.142C770.538 690.923 770.363 691.941 769.366 692.417L504.716 818.632C503.719 819.107 502.278 818.86 501.497 818.079L491.352 807.936Z" fill="#465E82"/>
</g>
<defs>
<filter id="filter0_d_1301_13648" x="433.445" y="-145.146" width="1074.1" height="813.748" filterUnits="userSpaceOnUse" color-interpolation-filters="sRGB">
<feFlood flood-opacity="0" result="BackgroundImageFix"/>
<feColorMatrix in="SourceAlpha" type="matrix" values="0 0 0 0 0 0 0 0 0 0 0 0 0 0 0 0 0 0 127 0" result="hardAlpha"/>
<feMorphology radius="10" operator="erode" in="SourceAlpha" result="effect1_dropShadow_1301_13648"/>
<feOffset dy="25"/>
<feGaussianBlur stdDeviation="25"/>
<feColorMatrix type="matrix" values="0 0 0 0 0.021875 0 0 0 0 0.0395148 0 0 0 0 0.125 0 0 0 1 0"/>
<feBlend mode="normal" in2="BackgroundImageFix" result="effect1_dropShadow_1301_13648"/>
<feBlend mode="normal" in="SourceGraphic" in2="effect1_dropShadow_1301_13648" result="shape"/>
</filter>
<filter id="filter1_d_1301_13648" x="-1126" y="240.076" width="2251.2" height="1422.61" filterUnits="userSpaceOnUse" color-interpolation-filters="sRGB">
<feFlood flood-opacity="0" result="BackgroundImageFix"/>
<feColorMatrix in="SourceAlpha" type="matrix" values="0 0 0 0 0 0 0 0 0 0 0 0 0 0 0 0 0 0 127 0" result="hardAlpha"/>
<feMorphology radius="10" operator="erode" in="SourceAlpha" result="effect1_dropShadow_1301_13648"/>
<feOffset dy="25"/>
<feGaussianBlur stdDeviation="25"/>
<feColorMatrix type="matrix" values="0 0 0 0 0.021875 0 0 0 0 0.0395148 0 0 0 0 0.125 0 0 0 1 0"/>
<feBlend mode="normal" in2="BackgroundImageFix" result="effect1_dropShadow_1301_13648"/>
<feBlend mode="normal" in="SourceGraphic" in2="effect1_dropShadow_1301_13648" result="shape"/>
</filter>
</defs>
</svg>
