<svg width="1164" height="688" viewBox="0 0 1164 688" fill="none" xmlns="http://www.w3.org/2000/svg">
<rect width="1164" height="688" fill="#071324"/>
<mask id="mask0_1301_13642" style="mask-type:alpha" maskUnits="userSpaceOnUse" x="0" y="0" width="1164" height="688">
<rect width="1164" height="688" fill="#EAD9CC"/>
</mask>
<g mask="url(#mask0_1301_13642)">
<g filter="url(#filter0_d_1301_13642)">
<rect width="566.009" height="712.519" rx="24" transform="matrix(0.902585 -0.430511 0.707107 0.707107 -258.281 -42.082)" fill="#0F1E34"/>
</g>
<path fill-rule="evenodd" clip-rule="evenodd" d="M-20.2836 120.217C-21.8457 118.655 -21.4957 116.618 -19.5017 115.667L206.394 7.92013C208.387 6.96907 211.27 7.46442 212.832 9.02651L224.013 20.2071C225.575 21.7692 225.225 23.8065 223.231 24.7575L-2.66432 132.504C-4.65826 133.455 -7.54099 132.96 -9.10309 131.398L-20.2836 120.217Z" fill="#465E82"/>
<path fill-rule="evenodd" clip-rule="evenodd" d="M210.259 350.76C208.697 349.198 209.047 347.161 211.041 346.21L541.094 188.782C543.088 187.831 545.971 188.326 547.533 189.889L558.714 201.069C560.276 202.631 559.926 204.669 557.932 205.62L227.878 363.047C225.884 363.998 223.002 363.503 221.44 361.941L210.259 350.76Z" fill="#465E82"/>
<path fill-rule="evenodd" clip-rule="evenodd" d="M5.50088 146C4.71983 145.219 4.89487 144.2 5.89184 143.725L265.157 20.0618C266.154 19.5863 267.595 19.834 268.376 20.615L275.909 28.1481C276.69 28.9291 276.515 29.9478 275.518 30.4233L16.2533 154.086C15.2563 154.562 13.815 154.314 13.0339 153.533L5.50088 146Z" fill="#213450"/>
<path fill-rule="evenodd" clip-rule="evenodd" d="M236.044 376.543C235.263 375.762 235.438 374.743 236.435 374.268L527.113 235.622C528.109 235.146 529.551 235.394 530.332 236.175L537.865 243.708C538.646 244.489 538.471 245.508 537.474 245.983L246.796 384.629C245.799 385.105 244.358 384.857 243.577 384.076L236.044 376.543Z" fill="#213450"/>
<path fill-rule="evenodd" clip-rule="evenodd" d="M21.0431 161.543C20.2621 160.762 20.4371 159.743 21.4341 159.268L368.324 -6.19024C369.321 -6.66576 370.763 -6.41809 371.544 -5.63705L379.077 1.89599C379.858 2.67704 379.683 3.6957 378.686 4.17122L31.7955 169.629C30.7986 170.105 29.3572 169.857 28.5762 169.076L21.0431 161.543Z" fill="#213450"/>
<path fill-rule="evenodd" clip-rule="evenodd" d="M251.586 392.086C250.805 391.305 250.98 390.286 251.977 389.811L459.989 290.594C460.986 290.118 462.428 290.366 463.209 291.147L470.742 298.68C471.523 299.461 471.348 300.48 470.351 300.955L262.338 400.172C261.341 400.648 259.9 400.4 259.119 399.619L251.586 392.086Z" fill="#213450"/>
<rect width="452.44" height="194.157" rx="8" transform="matrix(0.902585 -0.430511 0.707107 0.707107 -174.649 -34.1484)" fill="#213450"/>
<rect width="452.44" height="194.157" rx="8" transform="matrix(0.902585 -0.430511 0.707107 0.707107 55.894 196.395)" fill="#213450"/>
<path d="M330.929 130.253L278.966 155.038L278.964 155.039C273.229 157.78 272.25 163.667 276.774 168.199L309.585 201.009L309.582 201.009C314.115 205.534 322.433 206.986 328.175 204.255L380.139 179.47L380.137 179.47C385.869 176.729 386.849 170.842 382.327 166.311L349.517 133.5C344.981 128.974 336.662 127.522 330.92 130.253L330.929 130.253ZM326.141 144.652L326.139 144.653C330.441 142.599 336.688 143.689 340.086 147.087C343.482 150.483 342.746 154.904 338.443 156.957C334.138 159.01 327.893 157.919 324.497 154.522L324.495 154.523C321.102 151.125 321.837 146.708 326.135 144.653L326.141 144.652ZM324.08 200.153L324.079 200.153C321.206 201.521 317.046 200.795 314.78 198.529L306.112 189.861L310.708 171.711L310.707 171.71C311.631 168.079 316.417 165.954 321.635 166.857L340.489 170.133L336.477 194.235L324.08 200.153ZM377.139 168.787C379.403 171.052 378.913 173.999 376.044 175.367L343.831 190.732L347.986 165.765L347.985 165.764C348.932 162.454 353.155 160.427 357.974 160.969L370.709 162.357L377.139 168.787Z" fill="#465E82"/>
<g filter="url(#filter1_d_1301_13642)">
<rect width="1767.63" height="840.735" rx="24" transform="matrix(0.902607 -0.430465 0.707153 0.707061 -141.047 760.9)" fill="#0F1E34"/>
</g>
<path fill-rule="evenodd" clip-rule="evenodd" d="M669.03 765.133C667.468 763.571 667.818 761.534 669.812 760.583L996.566 604.749C998.56 603.798 1001.44 604.294 1003.01 605.856L1016.78 619.626C1018.34 621.188 1017.99 623.225 1016 624.176L689.241 780.009C687.247 780.96 684.364 780.465 682.802 778.903L669.03 765.133Z" fill="#465E82"/>
<rect width="529.374" height="289.403" rx="8" transform="matrix(0.902607 -0.430465 0.707153 0.707061 965.872 290.381)" fill="#213450"/>
<rect width="529.374" height="289.403" rx="8" transform="matrix(0.902607 -0.430465 0.707153 0.707061 443.415 539.547)" fill="#213450"/>
<rect width="489.075" height="144.702" rx="8" transform="matrix(0.902607 -0.430465 0.707153 0.707061 -50.9348 775.311)" fill="#213450"/>
<path d="M786.164 483.208L723.57 513.06L723.568 513.061C716.66 516.363 715.502 523.475 720.98 528.96L760.7 568.676L760.697 568.675C766.184 574.153 776.227 575.924 783.144 572.634L845.737 542.783L845.735 542.784C852.64 539.482 853.798 532.369 848.324 526.884L808.603 487.169C803.112 481.69 793.07 479.919 786.153 483.209L786.164 483.208ZM780.446 500.6L780.444 500.601C785.626 498.128 793.167 499.457 797.28 503.57C801.392 507.681 800.522 513.022 795.339 515.494C790.153 517.967 782.614 516.637 778.502 512.526L778.5 512.526C774.393 508.413 775.261 503.077 780.438 500.601L780.446 500.6ZM778.186 567.669L778.184 567.67C774.724 569.317 769.701 568.432 766.958 565.689L756.465 555.197L761.936 533.271L761.934 533.27C763.035 528.884 768.801 526.324 775.1 527.426L797.86 531.422L793.119 560.542L778.186 567.669ZM842.074 529.867C844.816 532.609 844.236 536.169 840.78 537.817L801.978 556.322L806.889 526.159L806.887 526.157C808.016 522.159 813.103 519.717 818.919 520.382L834.29 522.084L842.074 529.867Z" fill="#465E82"/>
<path fill-rule="evenodd" clip-rule="evenodd" d="M120.208 743.776C118.646 742.214 118.996 740.176 120.99 739.225L368.384 621.24C370.378 620.289 373.261 620.784 374.823 622.346L388.595 636.116C390.157 637.678 389.807 639.715 387.813 640.666L140.419 758.652C138.425 759.603 135.542 759.108 133.98 757.546L120.208 743.776Z" fill="#465E82"/>
<rect width="1108.2" height="56.7817" rx="8" transform="matrix(0.902607 -0.430465 0.707153 0.707061 920.074 1016.14)" fill="#213450"/>
<rect width="1108.2" height="56.7817" rx="8" transform="matrix(0.902607 -0.430465 0.707153 0.707061 868.263 964.34)" fill="#213450"/>
<rect width="1108.2" height="56.7817" rx="8" transform="matrix(0.902607 -0.430465 0.707153 0.707061 816.452 912.537)" fill="#213450"/>
<path fill-rule="evenodd" clip-rule="evenodd" d="M1126.41 787.844C1125.63 787.063 1125.8 786.044 1126.8 785.569L1381.11 664.284C1382.11 663.809 1383.55 664.057 1384.33 664.838L1394.46 674.96C1395.24 675.741 1395.06 676.76 1394.06 677.235L1139.75 798.52C1138.76 798.995 1137.32 798.748 1136.53 797.967L1126.41 787.844Z" fill="#465E82"/>
<rect width="1108.2" height="56.7817" rx="8" transform="matrix(0.902607 -0.430465 0.707153 0.707061 764.642 860.732)" fill="#213450"/>
<path fill-rule="evenodd" clip-rule="evenodd" d="M1074.6 736.039C1073.82 735.258 1073.99 734.24 1074.99 733.764L1236.71 656.636C1237.71 656.16 1239.15 656.408 1239.93 657.189L1250.06 667.312C1250.84 668.093 1250.66 669.111 1249.67 669.587L1087.94 746.715C1086.95 747.191 1085.5 746.943 1084.72 746.162L1074.6 736.039Z" fill="#465E82"/>
</g>
<defs>
<filter id="filter0_d_1301_13642" x="-287.167" y="-293.324" width="1072.47" height="812.637" filterUnits="userSpaceOnUse" color-interpolation-filters="sRGB">
<feFlood flood-opacity="0" result="BackgroundImageFix"/>
<feColorMatrix in="SourceAlpha" type="matrix" values="0 0 0 0 0 0 0 0 0 0 0 0 0 0 0 0 0 0 127 0" result="hardAlpha"/>
<feMorphology radius="10" operator="erode" in="SourceAlpha" result="effect1_dropShadow_1301_13642"/>
<feOffset dy="25"/>
<feGaussianBlur stdDeviation="25"/>
<feColorMatrix type="matrix" values="0 0 0 0 0.021875 0 0 0 0 0.0395148 0 0 0 0 0.125 0 0 0 1 0"/>
<feBlend mode="normal" in2="BackgroundImageFix" result="effect1_dropShadow_1301_13642"/>
<feBlend mode="normal" in="SourceGraphic" in2="effect1_dropShadow_1301_13642" result="shape"/>
</filter>
<filter id="filter1_d_1301_13642" x="-169.933" y="-7.57227" width="2247.78" height="1420.49" filterUnits="userSpaceOnUse" color-interpolation-filters="sRGB">
<feFlood flood-opacity="0" result="BackgroundImageFix"/>
<feColorMatrix in="SourceAlpha" type="matrix" values="0 0 0 0 0 0 0 0 0 0 0 0 0 0 0 0 0 0 127 0" result="hardAlpha"/>
<feMorphology radius="10" operator="erode" in="SourceAlpha" result="effect1_dropShadow_1301_13642"/>
<feOffset dy="25"/>
<feGaussianBlur stdDeviation="25"/>
<feColorMatrix type="matrix" values="0 0 0 0 0.021875 0 0 0 0 0.0395148 0 0 0 0 0.125 0 0 0 1 0"/>
<feBlend mode="normal" in2="BackgroundImageFix" result="effect1_dropShadow_1301_13642"/>
<feBlend mode="normal" in="SourceGraphic" in2="effect1_dropShadow_1301_13642" result="shape"/>
</filter>
</defs>
</svg>
