<svg width="1164" height="688" viewBox="0 0 1164 688" fill="none" xmlns="http://www.w3.org/2000/svg">
<rect width="1164" height="688" fill="#071324"/>
<mask id="mask0_1301_13654" style="mask-type:alpha" maskUnits="userSpaceOnUse" x="0" y="0" width="1164" height="688">
<rect width="1164" height="688" fill="#EAD9CC"/>
</mask>
<g mask="url(#mask0_1301_13654)">
<g filter="url(#filter0_d_1301_13654)">
<rect width="1371.98" height="840.735" rx="24" transform="matrix(0.902601 -0.430478 0.70714 0.707073 117.23 339.67)" fill="#0F1E34"/>
</g>
<rect width="489.075" height="529.352" rx="8" transform="matrix(0.902601 -0.430478 0.70714 0.707073 349.818 496.543)" fill="#213450"/>
<rect width="710.716" height="404.798" rx="8" transform="matrix(0.902601 -0.430478 0.70714 0.707073 701.688 118.311)" fill="#213450"/>
<rect width="402.983" height="197.82" rx="8" transform="matrix(0.902601 -0.430478 0.70714 0.707073 600.623 688.723)" fill="#0F1E34"/>
<rect width="402.983" height="153.86" rx="8" transform="matrix(0.902601 -0.430478 0.70714 0.707073 895.501 253.506)" fill="#0F1E34"/>
<rect width="489.075" height="144.702" rx="8" transform="matrix(0.902601 -0.430478 0.70714 0.707073 207.341 354.08)" fill="#213450"/>
<path fill-rule="evenodd" clip-rule="evenodd" d="M541.028 577.858C539.466 576.296 539.816 574.258 541.81 573.307L633.789 529.44C635.783 528.489 638.666 528.984 640.228 530.546L647.523 537.841C649.085 539.403 648.735 541.44 646.741 542.391L554.762 586.259C552.768 587.21 549.885 586.714 548.323 585.152L541.028 577.858Z" fill="#465E82"/>
<path fill-rule="evenodd" clip-rule="evenodd" d="M566.933 603.76C565.371 602.198 565.721 600.161 567.715 599.21L659.694 555.342C661.688 554.391 664.571 554.886 666.133 556.448L673.428 563.743C674.991 565.305 674.641 567.342 672.647 568.293L580.667 612.161C578.673 613.112 575.791 612.617 574.228 611.055L566.933 603.76Z" fill="#465E82"/>
<rect width="18.3174" height="18.3167" rx="5" transform="matrix(0.902601 -0.430478 0.70714 0.707073 505.133 590.801)" fill="#465E82"/>
<rect width="18.3174" height="18.3167" rx="5" transform="matrix(0.902601 -0.430478 0.70714 0.707073 531.038 616.703)" fill="#465E82"/>
<path fill-rule="evenodd" clip-rule="evenodd" d="M423.77 509.445C422.208 507.883 422.558 505.846 424.552 504.895L671.945 386.906C673.939 385.955 676.822 386.451 678.384 388.013L692.155 401.783C693.717 403.345 693.367 405.382 691.373 406.333L443.981 524.322C441.987 525.273 439.104 524.778 437.542 523.216L423.77 509.445Z" fill="#465E82"/>
<path fill-rule="evenodd" clip-rule="evenodd" d="M774.345 129.918C772.783 128.356 773.133 126.319 775.127 125.368L1239.11 -95.9177C1241.1 -96.8687 1243.98 -96.3733 1245.54 -94.8113L1259.32 -81.041C1260.88 -79.479 1260.53 -77.4418 1258.53 -76.4908L794.555 144.795C792.561 145.746 789.678 145.25 788.116 143.688L774.345 129.918Z" fill="#465E82"/>
<path fill-rule="evenodd" clip-rule="evenodd" d="M378.482 322.543C376.92 320.981 377.27 318.944 379.264 317.993L626.656 200.004C628.65 199.053 631.533 199.548 633.095 201.11L646.867 214.881C648.429 216.443 648.079 218.48 646.085 219.431L398.692 337.42C396.698 338.371 393.816 337.875 392.253 336.313L378.482 322.543Z" fill="#465E82"/>
<path fill-rule="evenodd" clip-rule="evenodd" d="M454.737 540.41C453.956 539.629 454.131 538.611 455.128 538.135L595.358 471.255C596.355 470.78 597.796 471.028 598.577 471.809L608.701 481.932C609.482 482.713 609.307 483.731 608.31 484.207L468.08 551.086C467.083 551.562 465.642 551.314 464.861 550.533L454.737 540.41Z" fill="#0F1E34"/>
<path fill-rule="evenodd" clip-rule="evenodd" d="M805.311 160.883C804.53 160.102 804.705 159.083 805.702 158.608L1144.33 -2.89482C1145.33 -3.37031 1146.77 -3.12263 1147.55 -2.34162L1157.68 7.78132C1158.46 8.56233 1158.28 9.58092 1157.28 10.0564L818.655 171.559C817.658 172.035 816.216 171.787 815.435 171.006L805.311 160.883Z" fill="#0F1E34"/>
<path fill-rule="evenodd" clip-rule="evenodd" d="M831.217 186.785C830.435 186.004 830.61 184.986 831.607 184.51L991.677 108.168C992.674 107.693 994.115 107.94 994.897 108.721L1005.02 118.844C1005.8 119.625 1005.63 120.644 1004.63 121.119L844.56 197.461C843.563 197.937 842.122 197.689 841.34 196.908L831.217 186.785Z" fill="#0F1E34"/>
<path fill-rule="evenodd" clip-rule="evenodd" d="M404.268 348.326C403.487 347.545 403.662 346.527 404.659 346.051L544.888 279.171C545.885 278.696 547.327 278.944 548.108 279.725L558.232 289.848C559.013 290.629 558.838 291.647 557.841 292.123L417.611 359.002C416.614 359.478 415.173 359.23 414.392 358.449L404.268 348.326Z" fill="#0F1E34"/>
<path fill-rule="evenodd" clip-rule="evenodd" d="M478.051 563.723C477.27 562.942 477.445 561.923 478.442 561.448L668.272 470.912C669.269 470.437 670.71 470.684 671.491 471.465L681.615 481.588C682.396 482.369 682.221 483.388 681.224 483.863L491.395 574.399C490.398 574.874 488.956 574.627 488.175 573.846L478.051 563.723Z" fill="#0F1E34"/>
<path fill-rule="evenodd" clip-rule="evenodd" d="M956.443 708.395C955.446 708.87 954.005 708.623 953.224 707.842L875.747 630.372C874.966 629.591 875.141 628.573 876.138 628.097L888.488 622.207C889.485 621.732 890.927 621.979 891.708 622.76L969.184 700.23C969.965 701.011 969.79 702.029 968.793 702.505L956.443 708.395Z" fill="#465E82"/>
<path fill-rule="evenodd" clip-rule="evenodd" d="M879.835 744.932C878.838 745.408 877.396 745.16 876.615 744.379L817.272 685.041C816.491 684.26 816.666 683.242 817.663 682.766L830.013 676.876C831.01 676.401 832.451 676.648 833.232 677.429L892.575 736.767C893.356 737.548 893.181 738.566 892.184 739.042L879.835 744.932Z" fill="#465E82"/>
<path fill-rule="evenodd" clip-rule="evenodd" d="M981.98 696.215C980.984 696.691 979.542 696.443 978.761 695.662L929.78 646.685C928.999 645.904 929.174 644.886 930.171 644.41L942.521 638.52C943.518 638.045 944.959 638.292 945.74 639.073L994.721 688.05C995.502 688.831 995.327 689.85 994.33 690.325L981.98 696.215Z" fill="#465E82"/>
<path fill-rule="evenodd" clip-rule="evenodd" d="M905.371 732.752C904.374 733.228 902.933 732.98 902.152 732.199L857.056 687.108C856.275 686.327 856.45 685.308 857.447 684.833L869.797 678.943C870.794 678.467 872.235 678.715 873.017 679.496L918.112 724.587C918.893 725.368 918.718 726.387 917.721 726.862L905.371 732.752Z" fill="#465E82"/>
<path fill-rule="evenodd" clip-rule="evenodd" d="M1007.52 684.037C1006.52 684.513 1005.08 684.265 1004.3 683.484L933.297 612.491C932.516 611.71 932.691 610.691 933.688 610.215L946.038 604.325C947.035 603.85 948.476 604.098 949.257 604.879L1020.26 675.872C1021.04 676.653 1020.86 677.672 1019.87 678.147L1007.52 684.037Z" fill="#465E82"/>
<path fill-rule="evenodd" clip-rule="evenodd" d="M1033.05 671.858C1032.06 672.333 1030.62 672.086 1029.83 671.305L945.882 587.36C945.101 586.579 945.276 585.56 946.273 585.085L958.623 579.194C959.62 578.719 961.061 578.967 961.842 579.748L1045.8 663.693C1046.58 664.474 1046.4 665.492 1045.4 665.968L1033.05 671.858Z" fill="#465E82"/>
<path fill-rule="evenodd" clip-rule="evenodd" d="M828.761 769.291C827.764 769.767 826.322 769.519 825.541 768.738L751.95 695.154C751.169 694.373 751.344 693.355 752.341 692.879L764.691 686.989C765.688 686.514 767.13 686.761 767.911 687.542L841.502 761.126C842.283 761.907 842.108 762.926 841.111 763.401L828.761 769.291Z" fill="#465E82"/>
<path fill-rule="evenodd" clip-rule="evenodd" d="M930.907 720.575C929.91 721.05 928.468 720.802 927.687 720.021L838.553 630.896C837.772 630.115 837.947 629.096 838.944 628.621L851.294 622.731C852.291 622.255 853.733 622.503 854.514 623.284L943.648 712.409C944.429 713.19 944.254 714.209 943.257 714.685L930.907 720.575Z" fill="#465E82"/>
<path fill-rule="evenodd" clip-rule="evenodd" d="M1058.59 659.678C1057.59 660.154 1056.15 659.906 1055.37 659.125L946.808 550.573C946.027 549.792 946.202 548.773 947.199 548.298L959.549 542.407C960.546 541.932 961.988 542.18 962.769 542.961L1071.33 651.513C1072.11 652.294 1071.94 653.313 1070.94 653.788L1058.59 659.678Z" fill="#465E82"/>
<path fill-rule="evenodd" clip-rule="evenodd" d="M1015.94 339.528C1014.95 340.003 1013.5 339.756 1012.72 338.975L1000.37 326.623C999.59 325.842 999.765 324.823 1000.76 324.348L1013.11 318.458C1014.11 317.982 1015.55 318.23 1016.33 319.011L1028.68 331.363C1029.47 332.144 1029.29 333.162 1028.29 333.638L1015.94 339.528Z" fill="#465E82"/>
<path fill-rule="evenodd" clip-rule="evenodd" d="M1118.09 290.811C1117.09 291.286 1115.65 291.039 1114.87 290.258L1102.52 277.906C1101.74 277.125 1101.91 276.106 1102.91 275.631L1115.26 269.741C1116.26 269.265 1117.7 269.513 1118.48 270.294L1130.83 282.646C1131.61 283.427 1131.44 284.445 1130.44 284.921L1118.09 290.811Z" fill="#465E82"/>
<path fill-rule="evenodd" clip-rule="evenodd" d="M1041.48 327.35C1040.48 327.825 1039.04 327.578 1038.26 326.797L1015.79 304.325C1015.01 303.544 1015.18 302.525 1016.18 302.05L1028.53 296.16C1029.52 295.684 1030.97 295.932 1031.75 296.713L1054.22 319.185C1055 319.966 1054.83 320.984 1053.83 321.46L1041.48 327.35Z" fill="#465E82"/>
<path fill-rule="evenodd" clip-rule="evenodd" d="M1143.63 278.631C1142.63 279.107 1141.19 278.859 1140.41 278.078L1112.87 250.546C1112.09 249.765 1112.27 248.747 1113.26 248.271L1125.61 242.381C1126.61 241.906 1128.05 242.153 1128.83 242.934L1156.37 270.466C1157.15 271.247 1156.97 272.266 1155.98 272.741L1143.63 278.631Z" fill="#465E82"/>
<path fill-rule="evenodd" clip-rule="evenodd" d="M1067.02 315.17C1066.02 315.646 1064.58 315.398 1063.8 314.617L1051.44 302.265C1050.66 301.484 1050.84 300.466 1051.84 299.99L1064.19 294.1C1065.18 293.625 1066.62 293.872 1067.4 294.653L1079.76 307.005C1080.54 307.786 1080.36 308.805 1079.37 309.28L1067.02 315.17Z" fill="#465E82"/>
<path fill-rule="evenodd" clip-rule="evenodd" d="M1169.16 266.453C1168.17 266.929 1166.73 266.681 1165.94 265.9L1145.37 245.326C1144.59 244.545 1144.76 243.526 1145.76 243.051L1158.11 237.161C1159.11 236.685 1160.55 236.933 1161.33 237.714L1181.9 258.288C1182.69 259.069 1182.51 260.088 1181.51 260.563L1169.16 266.453Z" fill="#465E82"/>
<path fill-rule="evenodd" clip-rule="evenodd" d="M1092.55 302.991C1091.56 303.466 1090.11 303.218 1089.33 302.437L1054.84 267.948C1054.06 267.167 1054.23 266.148 1055.23 265.673L1067.58 259.783C1068.58 259.307 1070.02 259.555 1070.8 260.336L1105.29 294.825C1106.07 295.606 1105.9 296.625 1104.9 297.101L1092.55 302.991Z" fill="#465E82"/>
<path fill-rule="evenodd" clip-rule="evenodd" d="M1194.7 254.274C1193.7 254.749 1192.26 254.502 1191.48 253.721L1149.4 211.641C1148.61 210.86 1148.79 209.842 1149.79 209.366L1162.14 203.476C1163.13 203.001 1164.58 203.248 1165.36 204.029L1207.44 246.109C1208.22 246.89 1208.05 247.908 1207.05 248.384L1194.7 254.274Z" fill="#465E82"/>
<ellipse cx="37.5507" cy="37.5492" rx="37.5507" ry="37.5492" transform="matrix(0.902601 -0.430478 0.70714 0.707073 276.232 359.48)" fill="#465E82"/>
<rect width="710.716" height="56.7817" rx="8" transform="matrix(0.902601 -0.430478 0.70714 0.707073 1126.53 543.111)" fill="#213450"/>
<ellipse cx="12.8222" cy="12.8217" rx="12.8222" ry="12.8217" transform="matrix(0.902601 -0.430478 0.70714 0.707073 1158.02 545.305)" fill="#465E82"/>
<rect width="710.716" height="56.7817" rx="8" transform="matrix(0.902601 -0.430478 0.70714 0.707073 1074.72 491.307)" fill="#213450"/>
<path fill-rule="evenodd" clip-rule="evenodd" d="M1161.47 473.061C1160.69 472.28 1160.87 471.261 1161.86 470.786L1235.96 435.447C1236.96 434.971 1238.4 435.219 1239.18 436L1249.3 446.123C1250.09 446.904 1249.91 447.923 1248.91 448.398L1174.82 483.737C1173.82 484.212 1172.38 483.965 1171.6 483.184L1161.47 473.061Z" fill="#465E82"/>
<ellipse cx="12.8222" cy="12.8217" rx="12.8222" ry="12.8217" transform="matrix(0.902601 -0.430478 0.70714 0.707073 1106.22 493.5)" fill="#465E82"/>
<rect width="710.716" height="56.7816" rx="8" transform="matrix(0.902601 -0.430478 0.70714 0.707073 1022.91 439.502)" fill="#213450"/>
<path fill-rule="evenodd" clip-rule="evenodd" d="M1109.66 421.256C1108.88 420.475 1109.06 419.456 1110.05 418.981L1218.87 367.083C1219.87 366.608 1221.31 366.855 1222.09 367.636L1232.21 377.759C1232.99 378.54 1232.82 379.559 1231.82 380.034L1123.01 431.932C1122.01 432.408 1120.57 432.16 1119.79 431.379L1109.66 421.256Z" fill="#465E82"/>
<ellipse cx="12.8222" cy="12.8217" rx="12.8222" ry="12.8217" transform="matrix(0.902601 -0.430478 0.70714 0.707073 1054.41 441.695)" fill="#465E82"/>
<path d="M336.857 368.825L336.857 368.825C340.79 366.949 341.369 362.819 338.15 359.6C334.931 356.382 329.133 355.293 325.199 357.169C321.265 359.044 320.686 363.174 323.904 366.393L323.904 366.393C327.122 369.611 332.921 370.7 336.854 368.824L336.857 368.825ZM338.523 370.49C334.108 372.595 327.527 379.029 331.957 383.459L335.288 386.789L361.741 374.172L358.41 370.842C353.981 366.413 342.937 368.385 338.523 370.49Z" fill="#213450"/>
</g>
<defs>
<filter id="filter0_d_1301_13654" x="88.3438" y="-258.504" width="1890.64" height="1250.21" filterUnits="userSpaceOnUse" color-interpolation-filters="sRGB">
<feFlood flood-opacity="0" result="BackgroundImageFix"/>
<feColorMatrix in="SourceAlpha" type="matrix" values="0 0 0 0 0 0 0 0 0 0 0 0 0 0 0 0 0 0 127 0" result="hardAlpha"/>
<feMorphology radius="10" operator="erode" in="SourceAlpha" result="effect1_dropShadow_1301_13654"/>
<feOffset dy="25"/>
<feGaussianBlur stdDeviation="25"/>
<feColorMatrix type="matrix" values="0 0 0 0 0.021875 0 0 0 0 0.0395148 0 0 0 0 0.125 0 0 0 1 0"/>
<feBlend mode="normal" in2="BackgroundImageFix" result="effect1_dropShadow_1301_13654"/>
<feBlend mode="normal" in="SourceGraphic" in2="effect1_dropShadow_1301_13654" result="shape"/>
</filter>
</defs>
</svg>
