<svg width="1164" height="688" viewBox="0 0 1164 688" fill="none" xmlns="http://www.w3.org/2000/svg">
<rect width="1164" height="688" fill="#071324"/>
<mask id="mask0_1301_13636" style="mask-type:alpha" maskUnits="userSpaceOnUse" x="0" y="0" width="1164" height="688">
<rect width="1164" height="688" fill="#EAD9CC"/>
</mask>
<g mask="url(#mask0_1301_13636)">
<g filter="url(#filter0_d_1301_13636)">
<rect width="566.008" height="712.518" rx="24" transform="matrix(0.902601 -0.430478 0.70714 0.707073 -65.9426 276.611)" fill="#0F1E34"/>
</g>
<path fill-rule="evenodd" clip-rule="evenodd" d="M309.702 344.565C308.14 343.003 308.49 340.965 310.484 340.014L531.423 234.642C533.417 233.691 536.3 234.186 537.862 235.748L551.634 249.519C553.196 251.081 552.846 253.118 550.852 254.069L329.913 359.441C327.919 360.392 325.036 359.897 323.474 358.335L309.702 344.565Z" fill="#465E82"/>
<path fill-rule="evenodd" clip-rule="evenodd" d="M340.669 375.529C339.888 374.748 340.063 373.73 341.06 373.254L466.41 313.471C467.407 312.996 468.848 313.243 469.629 314.024L479.753 324.147C480.534 324.928 480.359 325.947 479.362 326.423L354.013 386.206C353.016 386.681 351.574 386.433 350.793 385.652L340.669 375.529Z" fill="#213450"/>
<path fill-rule="evenodd" clip-rule="evenodd" d="M358.802 393.66C358.021 392.879 358.196 391.861 359.193 391.385L575.476 288.233C576.473 287.758 577.915 288.005 578.696 288.787L588.82 298.909C589.601 299.69 589.426 300.709 588.429 301.185L372.146 404.336C371.149 404.812 369.707 404.564 368.926 403.783L358.802 393.66Z" fill="#213450"/>
<path fill-rule="evenodd" clip-rule="evenodd" d="M376.936 411.793C376.155 411.012 376.33 409.993 377.327 409.518L547.316 328.445C548.313 327.969 549.755 328.217 550.536 328.998L560.66 339.121C561.441 339.902 561.266 340.921 560.269 341.396L390.279 422.469C389.282 422.945 387.841 422.697 387.06 421.916L376.936 411.793Z" fill="#213450"/>
<rect width="139.212" height="124.553" rx="8" transform="matrix(0.902601 -0.430478 0.70714 0.707073 147.217 414.057)" fill="#213450"/>
<path d="M255.077 404.7L222.009 420.471L222.008 420.472C218.359 422.216 217.718 425.944 220.575 428.806L241.299 449.528L241.297 449.528C244.16 452.386 249.436 453.292 253.09 451.554L286.158 435.783L286.157 435.783C289.805 434.039 290.446 430.311 287.59 427.449L266.867 406.727C264.002 403.869 258.726 402.963 255.072 404.701L255.077 404.7ZM251.991 413.823L251.99 413.824C254.728 412.517 258.69 413.198 260.836 415.343C262.981 417.488 262.5 420.288 259.761 421.594C257.022 422.901 253.061 422.22 250.915 420.075L250.914 420.075C248.771 417.929 249.252 415.132 251.987 413.824L251.991 413.823ZM250.504 448.963L250.503 448.964C248.675 449.834 246.036 449.381 244.605 447.95L239.13 442.476L242.106 430.978L242.106 430.977C242.704 428.677 245.749 427.324 249.059 427.888L261.017 429.933L258.393 445.198L250.504 448.963ZM284.288 429.025C285.719 430.455 285.398 432.321 283.572 433.192L263.073 442.969L265.791 427.157L265.79 427.156C266.402 425.059 269.089 423.769 272.147 424.105L280.227 424.964L284.288 429.025Z" fill="#465E82"/>
<path fill-rule="evenodd" clip-rule="evenodd" d="M417.208 452.061C415.646 450.499 415.996 448.461 417.99 447.511L638.929 342.138C640.923 341.187 643.806 341.682 645.368 343.244L659.139 357.015C660.701 358.577 660.351 360.614 658.357 361.565L437.418 466.937C435.424 467.888 432.541 467.393 430.979 465.831L417.208 452.061Z" fill="#465E82"/>
<path fill-rule="evenodd" clip-rule="evenodd" d="M448.175 483.025C447.393 482.244 447.568 481.226 448.565 480.75L573.915 420.967C574.912 420.492 576.353 420.74 577.135 421.521L587.258 431.643C588.039 432.424 587.864 433.443 586.867 433.919L461.518 493.702C460.521 494.177 459.08 493.929 458.298 493.148L448.175 483.025Z" fill="#213450"/>
<path fill-rule="evenodd" clip-rule="evenodd" d="M466.308 501.156C465.527 500.375 465.702 499.357 466.699 498.881L682.982 395.729C683.979 395.254 685.42 395.502 686.201 396.283L696.325 406.406C697.106 407.187 696.931 408.205 695.934 408.681L479.651 511.832C478.654 512.308 477.213 512.06 476.432 511.279L466.308 501.156Z" fill="#213450"/>
<path fill-rule="evenodd" clip-rule="evenodd" d="M484.441 519.289C483.66 518.508 483.835 517.49 484.832 517.014L654.822 435.941C655.819 435.465 657.26 435.713 658.041 436.494L668.165 446.617C668.946 447.398 668.771 448.417 667.774 448.892L497.785 529.965C496.788 530.441 495.346 530.193 494.565 529.412L484.441 519.289Z" fill="#213450"/>
<rect width="139.212" height="124.553" rx="8" transform="matrix(0.902601 -0.430478 0.70714 0.707073 254.722 521.553)" fill="#213450"/>
<path d="M362.583 512.196L329.515 527.967L329.513 527.968C325.864 529.712 325.223 533.441 328.081 536.303L348.804 557.024L348.802 557.024C351.665 559.882 356.942 560.788 360.596 559.05L393.664 543.279L393.663 543.28C397.311 541.535 397.951 537.807 395.096 534.945L374.372 514.224C371.507 511.365 366.231 510.459 362.577 512.197L362.583 512.196ZM359.496 521.319L359.495 521.32C362.233 520.013 366.195 520.694 368.341 522.84C370.487 524.985 370.005 527.784 367.267 529.09C364.527 530.397 360.566 529.716 358.421 527.571L358.42 527.571C356.277 525.425 356.758 522.628 359.493 521.32L359.496 521.319ZM358.009 556.459L358.008 556.46C356.18 557.33 353.541 556.877 352.11 555.446L346.635 549.972L349.612 538.474L349.611 538.473C350.209 536.174 353.255 534.82 356.564 535.384L368.523 537.429L365.898 552.694L358.009 556.459ZM391.794 536.521C393.224 537.951 392.903 539.817 391.077 540.688L370.578 550.465L373.296 534.653L373.296 534.652C373.908 532.555 376.595 531.265 379.652 531.601L387.732 532.46L391.794 536.521Z" fill="#465E82"/>
<path fill-rule="evenodd" clip-rule="evenodd" d="M524.713 559.555C523.151 557.993 523.501 555.956 525.495 555.005L746.434 449.632C748.428 448.681 751.311 449.176 752.873 450.738L766.645 464.509C768.207 466.071 767.857 468.108 765.863 469.059L544.924 574.431C542.93 575.382 540.047 574.887 538.485 573.325L524.713 559.555Z" fill="#465E82"/>
<path fill-rule="evenodd" clip-rule="evenodd" d="M555.68 590.52C554.899 589.739 555.074 588.72 556.071 588.245L681.42 528.462C682.417 527.986 683.859 528.234 684.64 529.015L694.764 539.138C695.545 539.919 695.37 540.937 694.373 541.413L569.023 601.196C568.026 601.671 566.585 601.424 565.804 600.643L555.68 590.52Z" fill="#213450"/>
<path fill-rule="evenodd" clip-rule="evenodd" d="M573.813 608.65C573.032 607.869 573.207 606.851 574.204 606.375L790.487 503.224C791.484 502.748 792.925 502.996 793.707 503.777L803.83 513.9C804.611 514.681 804.436 515.699 803.439 516.175L587.157 619.327C586.16 619.802 584.718 619.554 583.937 618.773L573.813 608.65Z" fill="#213450"/>
<path fill-rule="evenodd" clip-rule="evenodd" d="M591.947 626.783C591.166 626.002 591.341 624.984 592.338 624.508L762.327 543.435C763.324 542.96 764.766 543.207 765.547 543.988L775.671 554.111C776.452 554.892 776.277 555.911 775.28 556.386L605.29 637.459C604.293 637.935 602.852 637.687 602.071 636.906L591.947 626.783Z" fill="#213450"/>
<rect width="139.212" height="124.553" rx="8" transform="matrix(0.902601 -0.430478 0.70714 0.707073 362.227 629.047)" fill="#213450"/>
<path d="M470.088 619.69L437.02 635.462L437.019 635.462C433.369 637.206 432.728 640.935 435.586 643.797L456.309 664.518L456.308 664.518C459.171 667.376 464.447 668.282 468.101 666.544L501.169 650.773L501.168 650.774C504.816 649.029 505.457 645.301 502.601 642.439L481.878 621.718C479.013 618.859 473.736 617.953 470.082 619.691L470.088 619.69ZM467.002 628.814L467.001 628.814C469.738 627.507 473.701 628.188 475.847 630.334C477.992 632.479 477.511 635.279 474.772 636.585C472.033 637.891 468.071 637.21 465.926 635.065L465.925 635.066C463.782 632.92 464.263 630.122 466.998 628.814L467.002 628.814ZM465.515 663.954L465.513 663.954C463.686 664.825 461.047 664.371 459.615 662.94L454.141 657.466L457.117 645.968L457.116 645.967C457.715 643.668 460.76 642.314 464.07 642.878L476.028 644.923L473.404 660.188L465.515 663.954ZM499.299 644.015C500.73 645.445 500.409 647.312 498.583 648.182L478.084 657.959L480.802 642.147L480.801 642.146C481.413 640.049 484.1 638.759 487.158 639.095L495.238 639.954L499.299 644.015Z" fill="#465E82"/>
<path fill-rule="evenodd" clip-rule="evenodd" d="M135.621 253.52C134.059 251.958 134.409 249.92 136.403 248.969L337.502 153.059C339.496 152.108 342.379 152.604 343.941 154.166L357.713 167.936C359.275 169.498 358.925 171.535 356.931 172.486L155.832 268.396C153.838 269.347 150.955 268.852 149.393 267.29L135.621 253.52Z" fill="#465E82"/>
<path fill-rule="evenodd" clip-rule="evenodd" d="M173.148 308.135C172.367 307.354 172.542 306.335 173.539 305.86L399.742 197.977C400.739 197.501 402.181 197.749 402.962 198.53L415.676 211.243C416.457 212.024 416.282 213.043 415.285 213.518L189.082 321.401C188.085 321.877 186.644 321.629 185.863 320.848L173.148 308.135Z" fill="#213450"/>
<path fill-rule="evenodd" clip-rule="evenodd" d="M121.369 300.311C120.588 299.53 120.763 298.511 121.76 298.036L407.483 161.766C408.48 161.29 409.921 161.538 410.702 162.319L423.417 175.032C424.198 175.813 424.023 176.832 423.026 177.307L137.303 313.577C136.306 314.052 134.865 313.805 134.083 313.024L121.369 300.311Z" fill="#213450"/>
<g filter="url(#filter1_d_1301_13636)">
<rect width="566.008" height="712.518" rx="24" transform="matrix(0.902607 -0.430465 0.707153 0.707061 382.002 291.928)" fill="#0F1E34"/>
</g>
<path fill-rule="evenodd" clip-rule="evenodd" d="M620.012 454.217C618.45 452.655 618.8 450.618 620.794 449.667L846.695 341.932C848.689 340.981 851.571 341.476 853.134 343.038L864.315 354.218C865.877 355.78 865.527 357.817 863.533 358.768L637.633 466.503C635.639 467.454 632.756 466.959 631.193 465.397L620.012 454.217Z" fill="#465E82"/>
<path fill-rule="evenodd" clip-rule="evenodd" d="M850.57 684.744C849.008 683.182 849.358 681.145 851.352 680.194L1181.41 522.784C1183.41 521.833 1186.29 522.328 1187.85 523.89L1199.03 535.07C1200.6 536.632 1200.25 538.669 1198.25 539.62L868.19 697.03C866.196 697.981 863.314 697.486 861.751 695.924L850.57 684.744Z" fill="#465E82"/>
<path fill-rule="evenodd" clip-rule="evenodd" d="M645.799 480C645.017 479.219 645.192 478.2 646.189 477.725L905.461 354.075C906.458 353.6 907.899 353.847 908.68 354.628L916.214 362.161C916.995 362.942 916.82 363.96 915.823 364.436L656.552 488.086C655.555 488.561 654.113 488.314 653.332 487.533L645.799 480Z" fill="#213450"/>
<path fill-rule="evenodd" clip-rule="evenodd" d="M876.356 710.527C875.575 709.746 875.75 708.728 876.747 708.252L1167.43 569.621C1168.43 569.145 1169.87 569.393 1170.65 570.174L1178.18 577.707C1178.97 578.488 1178.79 579.506 1177.79 579.982L887.109 718.613C886.112 719.089 884.671 718.841 883.89 718.06L876.356 710.527Z" fill="#213450"/>
<path fill-rule="evenodd" clip-rule="evenodd" d="M661.342 495.541C660.561 494.76 660.736 493.742 661.733 493.266L1008.63 327.826C1009.63 327.35 1011.07 327.598 1011.85 328.379L1019.38 335.911C1020.17 336.692 1019.99 337.711 1018.99 338.186L672.095 503.627C671.098 504.102 669.656 503.855 668.875 503.074L661.342 495.541Z" fill="#213450"/>
<path fill-rule="evenodd" clip-rule="evenodd" d="M891.9 726.068C891.119 725.287 891.294 724.269 892.291 723.793L1100.31 624.587C1101.31 624.112 1102.75 624.359 1103.53 625.14L1111.06 632.673C1111.84 633.454 1111.67 634.472 1110.67 634.948L902.653 734.154C901.656 734.63 900.214 734.382 899.433 733.601L891.9 726.068Z" fill="#213450"/>
<rect width="452.44" height="194.157" rx="8" transform="matrix(0.902607 -0.430465 0.707153 0.707061 465.637 299.861)" fill="#213450"/>
<rect width="452.44" height="194.157" rx="8" transform="matrix(0.902607 -0.430465 0.707153 0.707061 696.195 530.389)" fill="#213450"/>
<path d="M740.681 233.731L688.716 258.513L688.714 258.514C682.979 261.255 682 267.141 686.525 271.673L719.337 304.481L719.334 304.48C723.868 309.006 732.187 310.458 737.929 307.727L789.893 282.944L789.892 282.945C795.624 280.204 796.603 274.317 792.082 269.786L759.269 236.978C754.733 232.452 746.414 231 740.672 233.731L740.681 233.731ZM735.893 248.128L735.891 248.129C740.193 246.076 746.44 247.166 749.838 250.563C753.235 253.96 752.499 258.38 748.196 260.432C743.891 262.485 737.645 261.394 734.249 257.998L734.247 257.999C730.854 254.601 731.589 250.185 735.887 248.129L735.893 248.128ZM733.833 303.625L733.832 303.625C730.959 304.993 726.799 304.267 724.532 302.001L715.864 293.334L720.46 275.185L720.459 275.184C721.383 271.554 726.169 269.428 731.387 270.332L750.241 273.607L746.231 297.708L733.833 303.625ZM786.893 272.263C789.158 274.527 788.667 277.474 785.798 278.842L753.585 294.205L757.739 269.241L757.738 269.239C758.685 265.93 762.908 263.902 767.727 264.445L780.462 265.833L786.893 272.263Z" fill="#465E82"/>
<path d="M971.239 464.258L919.274 489.041L919.272 489.041C913.537 491.782 912.558 497.669 917.083 502.2L949.895 535.008L949.892 535.008C954.426 539.533 962.744 540.985 968.487 538.254L1020.45 513.472L1020.45 513.472C1026.18 510.731 1027.16 504.845 1022.64 500.314L989.827 467.505C985.291 462.979 976.972 461.528 971.229 464.259L971.239 464.258ZM966.451 478.656L966.449 478.657C970.751 476.603 976.998 477.693 980.396 481.091C983.793 484.487 983.057 488.907 978.754 490.96C974.449 493.013 968.203 491.922 964.807 488.525L964.805 488.526C961.412 485.129 962.147 480.712 966.444 478.657L966.451 478.656ZM964.391 534.152L964.39 534.153C961.517 535.521 957.356 534.794 955.09 532.529L946.422 523.861L951.018 505.713L951.016 505.711C951.94 502.081 956.727 499.956 961.945 500.859L980.799 504.135L976.789 528.236L964.391 534.152ZM1017.45 502.79C1019.72 505.055 1019.23 508.001 1016.36 509.369L984.143 524.732L988.297 499.768L988.296 499.767C989.243 496.457 993.466 494.43 998.285 494.972L1011.02 496.36L1017.45 502.79Z" fill="#465E82"/>
</g>
<defs>
<filter id="filter0_d_1301_13636" x="-94.8289" y="25.3887" width="1072.5" height="812.594" filterUnits="userSpaceOnUse" color-interpolation-filters="sRGB">
<feFlood flood-opacity="0" result="BackgroundImageFix"/>
<feColorMatrix in="SourceAlpha" type="matrix" values="0 0 0 0 0 0 0 0 0 0 0 0 0 0 0 0 0 0 127 0" result="hardAlpha"/>
<feMorphology radius="10" operator="erode" in="SourceAlpha" result="effect1_dropShadow_1301_13636"/>
<feOffset dy="25"/>
<feGaussianBlur stdDeviation="25"/>
<feColorMatrix type="matrix" values="0 0 0 0 0.021875 0 0 0 0 0.0395148 0 0 0 0 0.125 0 0 0 1 0"/>
<feBlend mode="normal" in2="BackgroundImageFix" result="effect1_dropShadow_1301_13636"/>
<feBlend mode="normal" in="SourceGraphic" in2="effect1_dropShadow_1301_13636" result="shape"/>
</filter>
<filter id="filter1_d_1301_13636" x="353.115" y="40.7109" width="1072.52" height="812.58" filterUnits="userSpaceOnUse" color-interpolation-filters="sRGB">
<feFlood flood-opacity="0" result="BackgroundImageFix"/>
<feColorMatrix in="SourceAlpha" type="matrix" values="0 0 0 0 0 0 0 0 0 0 0 0 0 0 0 0 0 0 127 0" result="hardAlpha"/>
<feMorphology radius="10" operator="erode" in="SourceAlpha" result="effect1_dropShadow_1301_13636"/>
<feOffset dy="25"/>
<feGaussianBlur stdDeviation="25"/>
<feColorMatrix type="matrix" values="0 0 0 0 0.021875 0 0 0 0 0.0395148 0 0 0 0 0.125 0 0 0 1 0"/>
<feBlend mode="normal" in2="BackgroundImageFix" result="effect1_dropShadow_1301_13636"/>
<feBlend mode="normal" in="SourceGraphic" in2="effect1_dropShadow_1301_13636" result="shape"/>
</filter>
</defs>
</svg>
