<svg width="309" height="389" viewBox="0 0 309 389" fill="none" xmlns="http://www.w3.org/2000/svg">
<rect width="309" height="389" fill="#0F1E34"/>
<path fill-rule="evenodd" clip-rule="evenodd" d="M126 131C126 128.791 127.791 127 130 127H260C262.209 127 264 128.791 264 131V138C264 140.209 262.209 142 260 142H130C127.791 142 126 140.209 126 138V131Z" fill="#465E82"/>
<path fill-rule="evenodd" clip-rule="evenodd" d="M126 154C126 152.895 126.895 152 128 152H202C203.105 152 204 152.895 204 154V160C204 161.105 203.105 162 202 162H128C126.895 162 126 161.105 126 160V154Z" fill="#213450"/>
<path fill-rule="evenodd" clip-rule="evenodd" d="M126 168C126 166.895 126.895 166 128 166H257C258.105 166 259 166.895 259 168V174C259 175.105 258.105 176 257 176H128C126.895 176 126 175.105 126 174V168Z" fill="#213450"/>
<path fill-rule="evenodd" clip-rule="evenodd" d="M126 182C126 180.895 126.895 180 128 180H229C230.105 180 231 180.895 231 182V188C231 189.105 230.105 190 229 190H128C126.895 190 126 189.105 126 188V182Z" fill="#213450"/>
<rect x="31" y="125" width="76" height="68" rx="8" fill="#213450"/>
<path d="M79.0023 147.001H59.0014H59.0008C56.792 147.003 55.0025 148.792 55.0006 151.001V167.001L55 167C55.0019 169.208 56.7913 170.997 58.9996 171H79.0004H78.9998C81.208 170.997 82.9975 169.208 83 167V151.001C82.9975 148.792 81.208 147.002 78.9998 147L79.0023 147.001ZM74.0021 151.001H74.0015C75.6578 151.001 77.0016 152.344 77.0016 154.001C77.0016 155.657 75.6578 157.001 74.0015 157.001C72.3445 157.001 71.0013 155.657 71.0013 154.001H71.0007C71.002 152.345 72.3445 151.002 74.0002 151.001L74.0021 151.001ZM59.0014 169.001L59.0008 169.001C57.8958 169 57.0007 168.105 57.0007 167V162.773L62.9285 157.505V157.504C64.1154 156.451 65.9167 156.503 67.0412 157.623L71.1007 161.673L63.7741 168.999L59.0014 169.001ZM81.0024 167.001C81.0024 168.105 80.1067 169.001 79.0023 169.001H66.6036L74.1927 161.412V161.412C75.3022 160.468 76.931 160.463 78.0454 161.402L81.0024 163.865V167.001Z" fill="#465E82"/>
<path fill-rule="evenodd" clip-rule="evenodd" d="M126 214C126 211.791 127.791 210 130 210H260C262.209 210 264 211.791 264 214V221C264 223.209 262.209 225 260 225H130C127.791 225 126 223.209 126 221V214Z" fill="#465E82"/>
<path fill-rule="evenodd" clip-rule="evenodd" d="M126 237C126 235.895 126.895 235 128 235H202C203.105 235 204 235.895 204 237V243C204 244.105 203.105 245 202 245H128C126.895 245 126 244.105 126 243V237Z" fill="#213450"/>
<path fill-rule="evenodd" clip-rule="evenodd" d="M126 251C126 249.895 126.895 249 128 249H257C258.105 249 259 249.895 259 251V257C259 258.105 258.105 259 257 259H128C126.895 259 126 258.105 126 257V251Z" fill="#213450"/>
<path fill-rule="evenodd" clip-rule="evenodd" d="M126 265C126 263.895 126.895 263 128 263H229C230.105 263 231 263.895 231 265V271C231 272.105 230.105 273 229 273H128C126.895 273 126 272.105 126 271V265Z" fill="#213450"/>
<rect x="31" y="208" width="76" height="68" rx="8" fill="#213450"/>
<path d="M79.0023 230.001H59.0014H59.0008C56.792 230.003 55.0025 231.792 55.0006 234.001V250.001L55 250C55.0019 252.208 56.7913 253.997 58.9996 254H79.0004H78.9998C81.208 253.997 82.9975 252.208 83 250V234.001C82.9975 231.792 81.208 230.002 78.9998 230L79.0023 230.001ZM74.0021 234.001H74.0015C75.6578 234.001 77.0016 235.344 77.0016 237.001C77.0016 238.657 75.6578 240.001 74.0015 240.001C72.3445 240.001 71.0013 238.657 71.0013 237.001H71.0007C71.002 235.345 72.3445 234.002 74.0002 234.001L74.0021 234.001ZM59.0014 252.001L59.0008 252.001C57.8958 252 57.0007 251.105 57.0007 250V245.773L62.9285 240.505V240.504C64.1154 239.451 65.9167 239.503 67.0412 240.623L71.1007 244.673L63.7741 251.999L59.0014 252.001ZM81.0024 250.001C81.0024 251.105 80.1067 252.001 79.0023 252.001H66.6036L74.1927 244.412V244.412C75.3022 243.468 76.931 243.463 78.0454 244.402L81.0024 246.865V250.001Z" fill="#465E82"/>
<path fill-rule="evenodd" clip-rule="evenodd" d="M126 297C126 294.791 127.791 293 130 293H260C262.209 293 264 294.791 264 297V304C264 306.209 262.209 308 260 308H130C127.791 308 126 306.209 126 304V297Z" fill="#465E82"/>
<path fill-rule="evenodd" clip-rule="evenodd" d="M126 320C126 318.895 126.895 318 128 318H202C203.105 318 204 318.895 204 320V326C204 327.105 203.105 328 202 328H128C126.895 328 126 327.105 126 326V320Z" fill="#213450"/>
<path fill-rule="evenodd" clip-rule="evenodd" d="M126 334C126 332.895 126.895 332 128 332H257C258.105 332 259 332.895 259 334V340C259 341.105 258.105 342 257 342H128C126.895 342 126 341.105 126 340V334Z" fill="#213450"/>
<path fill-rule="evenodd" clip-rule="evenodd" d="M126 348C126 346.895 126.895 346 128 346H229C230.105 346 231 346.895 231 348V354C231 355.105 230.105 356 229 356H128C126.895 356 126 355.105 126 354V348Z" fill="#213450"/>
<rect x="31" y="291" width="76" height="68" rx="8" fill="#213450"/>
<path d="M79.0023 313.001H59.0014H59.0008C56.792 313.003 55.0025 314.792 55.0006 317.001V333.001L55 333C55.0019 335.208 56.7913 336.997 58.9996 337H79.0004H78.9998C81.208 336.997 82.9975 335.208 83 333V317.001C82.9975 314.792 81.208 313.002 78.9998 313L79.0023 313.001ZM74.0021 317.001H74.0015C75.6578 317.001 77.0016 318.344 77.0016 320.001C77.0016 321.657 75.6578 323.001 74.0015 323.001C72.3445 323.001 71.0013 321.657 71.0013 320.001H71.0007C71.002 318.345 72.3445 317.002 74.0002 317.001L74.0021 317.001ZM59.0014 335.001L59.0008 335.001C57.8958 335 57.0007 334.105 57.0007 333V328.773L62.9285 323.505V323.504C64.1154 322.451 65.9167 322.503 67.0412 323.623L71.1007 327.673L63.7741 334.999L59.0014 335.001ZM81.0024 333.001C81.0024 334.105 80.1067 335.001 79.0023 335.001H66.6036L74.1927 327.412V327.412C75.3022 326.468 76.931 326.463 78.0454 327.402L81.0024 329.865V333.001Z" fill="#465E82"/>
<path fill-rule="evenodd" clip-rule="evenodd" d="M92 40C92 37.7909 93.7909 36 96 36H214C216.209 36 218 37.7909 218 40V47C218 49.2091 216.209 51 214 51H96C93.7909 51 92 49.2091 92 47V40Z" fill="#465E82"/>
<path fill-rule="evenodd" clip-rule="evenodd" d="M85 77C85 75.8954 85.8954 75 87 75H222C223.105 75 224 75.8954 224 77V85C224 86.1046 223.105 87 222 87H87C85.8954 87 85 86.1046 85 85V77Z" fill="#213450"/>
<path fill-rule="evenodd" clip-rule="evenodd" d="M67 60C67 58.8954 67.8954 58 69 58H240C241.105 58 242 58.8954 242 60V68C242 69.1046 241.105 70 240 70H69C67.8954 70 67 69.1046 67 68V60Z" fill="#213450"/>
</svg>
