<svg width="20" height="20" viewBox="0 0 20 20" fill="none" xmlns="http://www.w3.org/2000/svg">
<path d="M3.33333 5.34422L0.625 2.63255L1.8 1.44922L4.5 4.14922H17.2H17.1917C17.65 4.14089 18.025 4.51588 18.025 4.97422C18.025 5.04922 18.0083 5.13255 17.9833 5.20755L15.9833 11.8742H15.975C15.8667 12.2242 15.5417 12.4659 15.175 12.4659H4.95833V14.1326H14.125V15.7992H4.125H4.11667C3.65 15.7909 3.28333 15.4242 3.28333 14.9576V14.9567V5.29922L3.33333 5.34422ZM5 5.82755V10.8276H14.5933L16.0933 5.82755H4.99167H5ZM4.58333 19.1609H4.575C3.88333 19.1526 3.325 18.5942 3.325 17.9109C3.325 17.2192 3.88333 16.6609 4.575 16.6609H4.56667C5.25 16.6526 5.81667 17.2192 5.81667 17.9109C5.81667 18.5942 5.25 19.1609 4.56667 19.1609H4.58333ZM14.5833 19.1609H14.575C13.8833 19.1526 13.325 18.5942 13.325 17.9109C13.325 17.2192 13.8833 16.6609 14.575 16.6609H14.5667C15.25 16.6526 15.8167 17.2192 15.8167 17.9109C15.8167 18.5942 15.25 19.1609 14.5667 19.1609H14.5833Z" fill="#3959FF"/>
</svg>
