<svg width="31" height="31" viewBox="0 0 31 31" fill="none" xmlns="http://www.w3.org/2000/svg">
<path d="M22.9625 0.0630593L17.2377 5.76363L8.7073 8.18511C7.0265 8.62653 5.71219 9.8751 5.15614 11.5273L0 27.393L1.80718 29.1965L3.61435 31L19.5251 25.8417C21.1553 25.2868 22.4064 23.9752 22.8614 22.323L25.2878 13.81L31 8.09683L22.8867 0L22.9625 0.0630593ZM22.9625 3.61961L27.4868 8.13466L24.2136 11.3885L19.6767 6.86086L22.9372 3.59439L22.9625 3.61961ZM17.541 8.29862L22.7982 13.5452L20.4603 21.6672C20.2201 22.5122 19.5883 23.1806 18.7668 23.4581L4.85283 27.9479L12.17 20.633C12.3722 20.6835 12.5997 20.7087 12.8145 20.7213V20.7201C14.2046 20.7074 15.3294 19.585 15.3294 18.1851C15.3168 16.7851 14.192 15.6627 12.8019 15.6627V15.6614C11.3991 15.6614 10.2744 16.7839 10.2744 18.1838C10.2744 18.3982 10.2996 18.6126 10.3502 18.827L3.02038 26.1293L7.51936 12.2562C7.79739 11.4112 8.46718 10.7806 9.32654 10.5536L17.4525 8.23303L17.541 8.29862Z" fill="#3959FF"/>
</svg>
