<svg width="35" height="30" viewBox="0 0 35 30" fill="none" xmlns="http://www.w3.org/2000/svg">
<path d="M17.5362 0.0680892C17.3206 0.0680892 17.105 0.0953247 16.9164 0.177031L0.276214 7.92556C-0.0741061 8.08897 -0.0741061 8.33409 0.276214 8.4975L16.9029 16.246C17.0916 16.3277 17.2937 16.355 17.5093 16.355C17.7114 16.355 17.9269 16.3141 18.1156 16.2324L34.7423 8.47027C35.0926 8.30686 35.0791 8.04812 34.7423 7.8847L18.1021 0.12256C17.9 0.0408536 17.6979 0 17.4823 0L17.5362 0.0680892ZM17.5362 2.90059L28.9755 8.22515L17.5227 13.5497L6.06996 8.21153L17.5093 2.87335L17.5362 2.90059ZM2.48592 12.9233L0.26274 14.0399C-0.0875799 14.217 -0.0875799 14.4893 0.26274 14.6664L16.8895 23.0685C17.0781 23.1502 17.2802 23.1911 17.4958 23.1911C17.6979 23.1911 17.9135 23.1366 18.1021 23.0549L34.7288 14.6391C35.0791 14.4621 35.0657 14.1761 34.7288 13.9991L32.5056 12.8688L18.0752 20.1407C17.873 20.2224 17.6709 20.2633 17.4554 20.2633C17.2398 20.2633 17.0242 20.2088 16.8356 20.1271L2.40508 12.8416L2.48592 12.9233ZM2.48592 19.7322L0.26274 20.8488C-0.0875799 21.0259 -0.0875799 21.2982 0.26274 21.4753L16.8895 29.8774C17.0781 29.9591 17.2802 30 17.4958 30C17.6979 30 17.9135 29.9455 18.1021 29.8638L34.7288 21.448C35.0791 21.271 35.0657 20.985 34.7288 20.808L32.5056 19.6777L18.0752 26.9496C17.873 27.0313 17.6709 27.0722 17.4554 27.0722C17.2398 27.0722 17.0242 27.0177 16.8356 26.936L2.40508 19.6505L2.48592 19.7322Z" fill="#3959FF"/>
</svg>
