<svg width="28" height="31" viewBox="0 0 28 31" fill="none" xmlns="http://www.w3.org/2000/svg">
<path d="M14.0127 0.05792C11.1491 0.05792 9.21455 1.19057 7.48364 2.14303C5.75273 3.08262 4.17455 3.90637 1.27273 3.90637H0V5.19348C0 15.1171 3.30909 21.5912 6.68182 25.504C10.0418 29.404 13.5227 30.8455 13.5227 30.8455L14 31L14.4773 30.8327C14.4773 30.8327 17.9518 29.4169 21.3182 25.5234C24.6782 21.6105 28 15.1364 28 5.1613V3.8742H26.7273C23.8382 3.8742 22.2473 3.05045 20.5227 2.09799C18.7918 1.14553 16.8636 0 14 0L14.0127 0.05792ZM14.0127 2.63214C16.24 2.63214 17.5127 3.41727 19.2945 4.40191C20.7964 5.22566 22.7945 6.02367 25.3782 6.28109C25.1236 14.9819 22.2855 20.5165 19.4091 23.8501C16.8 26.8619 14.6109 27.8659 14 28.1491C13.3764 27.8659 11.1873 26.8362 8.59091 23.7986C5.71455 20.4521 2.86364 14.9176 2.62182 6.25534C5.20545 5.98505 7.19091 5.18705 8.70545 4.3633C10.4873 3.37222 11.76 2.59352 13.9873 2.59352L14.0127 2.63214Z" fill="#3959FF"/>
</svg>
