<svg width="29" height="28" viewBox="0 0 29 28" fill="none" xmlns="http://www.w3.org/2000/svg">
<path d="M14.5335 0L14.1146 0.174346L7.41198 2.96389L6.71379 3.25446V11.0535L0.670262 13.7733L0 14.0988V23.467L0.558552 23.8273L7.26117 27.7094L7.77504 28L8.28891 27.7443L14.5 24.5015L20.7111 27.7327L21.225 27.9768L21.7388 27.6862L28.4414 23.7924L29 23.4205V14.0407L28.3297 13.7036L22.2862 10.9722V3.16148L21.588 2.8709L14.8854 0.0697384L14.5335 0ZM14.5335 2.53383L18.1976 4.02159L14.5223 5.50934L10.8471 4.00996L14.5335 2.53383ZM8.948 5.73018L13.4164 7.50851V13.1748L8.948 11.0942V5.73018ZM20.119 5.73018V11.1L15.6506 13.1689V7.5027L20.119 5.73018ZM7.83089 13.1341L11.8804 14.9821L7.83089 17.0511L3.78139 14.9357L7.83089 13.1341ZM21.2361 13.1341L25.2856 14.9473L21.2361 17.0511L17.1866 14.9705L18.4434 14.3894L21.2361 13.1341ZM2.24538 16.7256L6.71379 19.0502V24.7455L2.24538 22.1303V16.7256ZM26.8216 16.7256V22.1303L22.3532 24.7455V19.0386L26.8216 16.7256ZM13.4164 16.7954V22.4907L8.948 24.8153V19.0386L13.4164 16.7954ZM15.6506 16.7954L20.119 19.0386V24.8037L15.6506 22.479V16.7954Z" fill="#3959FF"/>
</svg>
