<svg width="28" height="29" viewBox="0 0 28 29" fill="none" xmlns="http://www.w3.org/2000/svg">
<path d="M10.9804 0.200153L10.8029 1.10084L10.1375 4.39225C9.07269 4.80368 8.11884 5.39302 7.25371 6.09356L4.02614 4.9816L3.14993 4.7036L2.69519 5.4931L0.476926 9.30713L0.0221826 10.0966L0.67657 10.686L3.17211 12.8654C3.07229 13.4325 2.96138 13.9996 2.96138 14.6001C2.96138 15.1894 3.07229 15.7676 3.16102 16.3347L0.665479 18.5142L0 19.1035L0.443652 19.893L2.66191 23.7071L3.10557 24.4965L3.97069 24.2186L7.18717 23.1066C8.05229 23.796 9.00614 24.3854 10.0598 24.8079L10.7142 28.0993L10.8806 29H17.1194L17.2858 28.0882L17.9402 24.7857C18.9939 24.3687 19.9477 23.7738 20.8128 23.0732L24.0293 24.1852L24.8944 24.4632L25.3381 23.6626L27.5563 19.8374L28 19.0368L27.3345 18.4363L24.839 16.2458C24.9277 15.6676 25.0386 15.1005 25.0386 14.5C25.0386 13.8995 24.9166 13.3213 24.8279 12.7542L27.3234 10.5637L27.9778 9.96319L27.5231 9.16258L25.3048 5.33742L24.8501 4.53681L23.9739 4.8148L20.7463 5.92676C19.8701 5.22623 18.9162 4.63689 17.8625 4.21434L17.1971 0.91181L17.0196 0L10.9804 0.200153ZM12.7772 2.42408H15.4058L15.9604 5.30406L16.099 5.96012L16.7201 6.16028C17.9735 6.54946 19.1159 7.21664 20.0808 8.10621L20.5577 8.551L21.1788 8.33972L23.9849 7.36676L25.2937 9.62404L23.0755 11.6033L22.5542 12.0148L22.7205 12.6708C22.8536 13.3046 22.9202 13.9496 22.9202 14.6168C22.9202 15.2728 22.8536 15.9178 22.7094 16.5627L22.5708 17.2188L23.0477 17.6357L25.266 19.615L23.9461 21.8723L21.1289 20.8993L20.4967 20.6881L20.0087 21.1329C19.0438 22.0113 17.9014 22.6785 16.637 23.0788L16.0048 23.2789L15.8661 23.935L15.3115 26.815H12.6663L12.1117 23.9239L11.9675 23.2567L11.3353 23.0454C10.0709 22.6451 8.9285 21.978 7.96356 21.0995L7.47554 20.6436L6.84334 20.8438L4.02614 21.8167L2.70628 19.5483L4.92454 17.5579L5.43474 17.1409L5.25728 16.4737C5.11309 15.8288 5.04654 15.1839 5.04654 14.5278C5.04654 13.8606 5.102 13.2157 5.24619 12.5819L5.41256 11.9147L4.89127 11.4921L2.673 9.50173L3.98178 7.23332L6.78788 8.20629L7.40899 8.40644L7.88592 7.95054C8.83977 7.06097 9.98218 6.39379 11.2466 6.0046L11.8677 5.79333L12.0008 5.12615L12.7772 2.42408ZM14.086 9.09586C11.0358 9.09586 8.54031 11.5978 8.54031 14.6557C8.54031 17.7136 11.0358 20.2155 14.086 20.2155C17.1361 20.2155 19.6316 17.7136 19.6316 14.6557C19.6316 11.5978 17.1361 9.09586 14.086 9.09586ZM14.086 11.3198C15.9271 11.3198 17.4134 12.7987 17.4134 14.6557C17.4134 16.5015 15.9271 17.9916 14.086 17.9916C12.2337 17.9916 10.7586 16.5015 10.7586 14.6557C10.7586 12.7987 12.2337 11.3198 14.086 11.3198Z" fill="#3959FF"/>
</svg>
