<svg width="26" height="32" viewBox="0 0 26 32" fill="none" xmlns="http://www.w3.org/2000/svg">
<path d="M11.3149 0.057102C9.44889 0.057102 7.92214 1.59886 7.92214 3.48323V15.7602L7.07394 15.5432C6.893 15.3034 6.81383 15.1549 6.36712 14.8237C5.63201 14.2869 4.5124 13.7502 3.00826 13.7502C1.39104 13.7502 0 15.212 0 17.0621V17.5189L0.31666 17.8729L7.90518 25.616V32H26V12.7566C26 11.1349 24.8691 9.73019 23.314 9.399L14.6907 7.50321V3.42612C14.6907 1.54176 13.1527 0 11.298 0L11.3149 0.057102ZM11.3149 2.34118C11.9482 2.34118 12.4458 2.83226 12.4458 3.48323V9.399L13.328 9.60457L22.8617 11.6374C23.3819 11.7516 23.7438 12.2313 23.7438 12.7794V24.0171H9.49413L2.34667 16.6966C2.43715 16.2056 2.6294 16.0114 2.97999 16.0114C3.99782 16.0114 4.63114 16.3198 5.02697 16.6167C5.42279 16.9022 5.51327 17.1078 5.51327 17.1078L5.71683 17.4961L6.1692 17.6388L8.71379 18.3126L10.1274 18.6667V3.4147C10.1274 2.76374 10.6137 2.27266 11.2584 2.27266L11.3149 2.34118ZM10.184 26.3241H23.7551V29.7502H10.184V26.3241Z" fill="#3959FF"/>
</svg>
