<svg width="619" height="459" viewBox="0 0 619 459" fill="none" xmlns="http://www.w3.org/2000/svg">
<rect width="619" height="459" fill="#0F1E34"/>
<rect x="31" y="140" width="137" height="289" rx="8" fill="#213450"/>
<rect x="200" y="30" width="388" height="221" rx="8" fill="#213450"/>
<rect x="224" y="149" width="220" height="84" rx="8" fill="#0F1E34"/>
<rect x="31" y="30" width="137" height="79" rx="8" fill="#213450"/>
<path fill-rule="evenodd" clip-rule="evenodd" d="M72 232C72 229.791 73.7909 228 76 228H128C130.209 228 132 229.791 132 232V234C132 236.209 130.209 238 128 238H76C73.7909 238 72 236.209 72 234V232Z" fill="#465E82"/>
<path fill-rule="evenodd" clip-rule="evenodd" d="M72 383C72 380.791 73.7909 379 76 379H128C130.209 379 132 380.791 132 383V385C132 387.209 130.209 389 128 389H76C73.7909 389 72 387.209 72 385V383Z" fill="#465E82"/>
<path fill-rule="evenodd" clip-rule="evenodd" d="M72 363C72 360.791 73.7909 359 76 359H128C130.209 359 132 360.791 132 363V365C132 367.209 130.209 369 128 369H76C73.7909 369 72 367.209 72 365V363Z" fill="#465E82"/>
<path fill-rule="evenodd" clip-rule="evenodd" d="M72 252C72 249.791 73.7909 248 76 248H128C130.209 248 132 249.791 132 252V254C132 256.209 130.209 258 128 258H76C73.7909 258 72 256.209 72 254V252Z" fill="#465E82"/>
<path fill-rule="evenodd" clip-rule="evenodd" d="M72 403C72 400.791 73.7909 399 76 399H128C130.209 399 132 400.791 132 403V405C132 407.209 130.209 409 128 409H76C73.7909 409 72 407.209 72 405V403Z" fill="#465E82"/>
<path fill-rule="evenodd" clip-rule="evenodd" d="M498 224C498 221.791 499.791 220 502 220H554C556.209 220 558 221.791 558 224V226C558 228.209 556.209 230 554 230H502C499.791 230 498 228.209 498 226V224Z" fill="#465E82"/>
<path fill-rule="evenodd" clip-rule="evenodd" d="M498 202C498 199.791 499.791 198 502 198H554C556.209 198 558 199.791 558 202V204C558 206.209 556.209 208 554 208H502C499.791 208 498 206.209 498 204V202Z" fill="#465E82"/>
<path fill-rule="evenodd" clip-rule="evenodd" d="M498 181C498 178.791 499.791 177 502 177H554C556.209 177 558 178.791 558 181V183C558 185.209 556.209 187 554 187H502C499.791 187 498 185.209 498 183V181Z" fill="#465E82"/>
<path fill-rule="evenodd" clip-rule="evenodd" d="M498 160C498 157.791 499.791 156 502 156H554C556.209 156 558 157.791 558 160V162C558 164.209 556.209 166 554 166H502C499.791 166 498 164.209 498 162V160Z" fill="#465E82"/>
<rect x="52" y="228" width="10" height="10" rx="5" fill="#465E82"/>
<rect x="52" y="379" width="10" height="10" rx="5" fill="#465E82"/>
<rect x="52" y="359" width="10" height="10" rx="5" fill="#465E82"/>
<rect x="52" y="248" width="10" height="10" rx="5" fill="#465E82"/>
<rect x="52" y="399" width="10" height="10" rx="5" fill="#465E82"/>
<rect x="478" y="220" width="10" height="10" rx="5" fill="#465E82"/>
<rect x="478" y="198" width="10" height="10" rx="5" fill="#465E82"/>
<rect x="478" y="177" width="10" height="10" rx="5" fill="#465E82"/>
<rect x="478" y="156" width="10" height="10" rx="5" fill="#465E82"/>
<path fill-rule="evenodd" clip-rule="evenodd" d="M52 167C52 164.791 53.7909 163 56 163H142C144.209 163 146 164.791 146 167V174C146 176.209 144.209 178 142 178H56C53.7909 178 52 176.209 52 174V167Z" fill="#465E82"/>
<path fill-rule="evenodd" clip-rule="evenodd" d="M225 56C225 53.7909 226.791 52 229 52H506C508.209 52 510 53.7909 510 56V63C510 65.2091 508.209 67 506 67H229C226.791 67 225 65.2091 225 63V56Z" fill="#465E82"/>
<path fill-rule="evenodd" clip-rule="evenodd" d="M52 190C52 188.895 52.8954 188 54 188H103C104.105 188 105 188.895 105 190V196C105 197.105 104.105 198 103 198H54C52.8954 198 52 197.105 52 196V190Z" fill="#0F1E34"/>
<path fill-rule="evenodd" clip-rule="evenodd" d="M225 79C225 77.8954 225.895 77 227 77H430C431.105 77 432 77.8954 432 79V85C432 86.1046 431.105 87 430 87H227C225.895 87 225 86.1046 225 85V79Z" fill="#0F1E34"/>
<path fill-rule="evenodd" clip-rule="evenodd" d="M225 99C225 97.8954 225.895 97 227 97H322C323.105 97 324 97.8954 324 99V105C324 106.105 323.105 107 322 107H227C225.895 107 225 106.105 225 105V99Z" fill="#0F1E34"/>
<path fill-rule="evenodd" clip-rule="evenodd" d="M52 277C52 275.895 52.8954 275 54 275H103C104.105 275 105 275.895 105 277V283C105 284.105 104.105 285 103 285H54C52.8954 285 52 284.105 52 283V277Z" fill="#0F1E34"/>
<path fill-rule="evenodd" clip-rule="evenodd" d="M52 315C52 313.895 52.8954 313 54 313H123C124.105 313 125 313.895 125 315V321C125 322.105 124.105 323 123 323H54C52.8954 323 52 322.105 52 321V315Z" fill="#0F1E34"/>
<path fill-rule="evenodd" clip-rule="evenodd" d="M52 208C52 206.895 52.8954 206 54 206H121C122.105 206 123 206.895 123 208V214C123 215.105 122.105 216 121 216H54C52.8954 216 52 215.105 52 214V208Z" fill="#0F1E34"/>
<path fill-rule="evenodd" clip-rule="evenodd" d="M52 296C52 294.895 52.8954 294 54 294H140C141.105 294 142 294.895 142 296V302C142 303.105 141.105 304 140 304H54C52.8954 304 52 303.105 52 302V296Z" fill="#0F1E34"/>
<path fill-rule="evenodd" clip-rule="evenodd" d="M239 224C237.895 224 237 223.105 237 222L237 214.279C237 213.175 237.895 212.279 239 212.279L244.653 212.279C245.758 212.279 246.653 213.175 246.653 214.279L246.653 222C246.653 223.105 245.758 224 244.653 224L239 224Z" fill="#465E82"/>
<path fill-rule="evenodd" clip-rule="evenodd" d="M300.782 224C299.678 224 298.782 223.105 298.782 222L298.782 214.279C298.782 213.175 299.678 212.279 300.782 212.279L306.436 212.279C307.54 212.279 308.436 213.175 308.436 214.279L308.436 222C308.436 223.105 307.54 224 306.436 224L300.782 224Z" fill="#465E82"/>
<path fill-rule="evenodd" clip-rule="evenodd" d="M362.564 224C361.459 224 360.564 223.105 360.564 222L360.564 195.721C360.564 194.616 361.459 193.721 362.564 193.721L368.217 193.721C369.322 193.721 370.217 194.616 370.217 195.721L370.217 222C370.217 223.105 369.322 224 368.217 224L362.564 224Z" fill="#465E82"/>
<path fill-rule="evenodd" clip-rule="evenodd" d="M254.445 224C253.341 224 252.445 223.105 252.445 222L252.445 206.465C252.445 205.361 253.341 204.465 254.445 204.465L260.099 204.465C261.203 204.465 262.099 205.361 262.099 206.465L262.099 222C262.099 223.105 261.203 224 260.099 224L254.445 224Z" fill="#465E82"/>
<path fill-rule="evenodd" clip-rule="evenodd" d="M316.228 224C315.123 224 314.228 223.105 314.228 222L314.228 202.558C314.228 201.454 315.123 200.558 316.228 200.558L321.881 200.558C322.986 200.558 323.881 201.454 323.881 202.558L323.881 222C323.881 223.105 322.986 224 321.881 224L316.228 224Z" fill="#465E82"/>
<path fill-rule="evenodd" clip-rule="evenodd" d="M378.01 224C376.905 224 376.01 223.105 376.01 222L376.01 206.465C376.01 205.361 376.905 204.465 378.01 204.465L383.663 204.465C384.768 204.465 385.663 205.361 385.663 206.465L385.663 222C385.663 223.105 384.768 224 383.663 224L378.01 224Z" fill="#465E82"/>
<path fill-rule="evenodd" clip-rule="evenodd" d="M269.891 224C268.787 224 267.891 223.105 267.891 222L267.891 214.279C267.891 213.175 268.787 212.279 269.891 212.279L275.545 212.279C276.649 212.279 277.545 213.175 277.545 214.279L277.545 222C277.545 223.105 276.649 224 275.545 224L269.891 224Z" fill="#465E82"/>
<path fill-rule="evenodd" clip-rule="evenodd" d="M331.674 224C330.569 224 329.674 223.105 329.674 222L329.674 207.93C329.674 206.826 330.569 205.93 331.674 205.93L337.327 205.93C338.432 205.93 339.327 206.826 339.327 207.93L339.327 222C339.327 223.105 338.432 224 337.327 224L331.674 224Z" fill="#465E82"/>
<path fill-rule="evenodd" clip-rule="evenodd" d="M393.455 224C392.351 224 391.455 223.105 391.455 222L391.455 198.163C391.455 197.058 392.351 196.163 393.455 196.163L399.109 196.163C400.213 196.163 401.109 197.058 401.109 198.163L401.109 222C401.109 223.105 400.213 224 399.109 224L393.455 224Z" fill="#465E82"/>
<path fill-rule="evenodd" clip-rule="evenodd" d="M408.901 224C407.796 224 406.901 223.105 406.901 222L406.901 193.279C406.901 192.174 407.796 191.279 408.901 191.279L414.554 191.279C415.659 191.279 416.554 192.174 416.554 193.279L416.554 222C416.554 223.105 415.659 224 414.554 224L408.901 224Z" fill="#465E82"/>
<path fill-rule="evenodd" clip-rule="evenodd" d="M285.336 224C284.232 224 283.336 223.105 283.336 222L283.336 197.186C283.336 196.081 284.232 195.186 285.336 195.186L290.99 195.186C292.094 195.186 292.99 196.081 292.99 197.186L292.99 222C292.99 223.105 292.094 224 290.99 224L285.336 224Z" fill="#465E82"/>
<path fill-rule="evenodd" clip-rule="evenodd" d="M347.118 224C346.014 224 345.118 223.105 345.118 222L345.118 191.326C345.118 190.221 346.014 189.326 347.118 189.326L352.772 189.326C353.876 189.326 354.772 190.221 354.772 191.326L354.772 222C354.772 223.105 353.876 224 352.772 224L347.118 224Z" fill="#465E82"/>
<path fill-rule="evenodd" clip-rule="evenodd" d="M424.346 224C423.242 224 422.346 223.105 422.346 222L422.346 184C422.346 182.895 423.242 182 424.346 182L430 182C431.104 182 432 182.895 432 184L432 222C432 223.105 431.104 224 430 224L424.346 224Z" fill="#465E82"/>
<circle cx="99.5" cy="68.5" r="20.5" fill="#465E82"/>
<rect x="200" y="398" width="388" height="31" rx="8" fill="#213450"/>
<path fill-rule="evenodd" clip-rule="evenodd" d="M243 411C243 409.895 243.895 409 245 409H301C302.105 409 303 409.895 303 411V417C303 418.105 302.105 419 301 419H245C243.895 419 243 418.105 243 417V411Z" fill="#465E82"/>
<path fill-rule="evenodd" clip-rule="evenodd" d="M378 411C378 409.895 378.895 409 380 409H492C493.105 409 494 409.895 494 411V417C494 418.105 493.105 419 492 419H380C378.895 419 378 418.105 378 417V411Z" fill="#465E82"/>
<circle cx="219" cy="414" r="7" fill="#465E82"/>
<rect x="200" y="358" width="388" height="31" rx="8" fill="#213450"/>
<path fill-rule="evenodd" clip-rule="evenodd" d="M243 371C243 369.895 243.895 369 245 369H275C276.105 369 277 369.895 277 371V377C277 378.105 276.105 379 275 379H245C243.895 379 243 378.105 243 377V371Z" fill="#465E82"/>
<path fill-rule="evenodd" clip-rule="evenodd" d="M378 371C378 369.895 378.895 369 380 369H443C444.105 369 445 369.895 445 371V377C445 378.105 444.105 379 443 379H380C378.895 379 378 378.105 378 377V371Z" fill="#465E82"/>
<circle cx="219" cy="374" r="7" fill="#465E82"/>
<rect x="200" y="318" width="388" height="31" rx="8" fill="#213450"/>
<path fill-rule="evenodd" clip-rule="evenodd" d="M243 331C243 329.895 243.895 329 245 329H288C289.105 329 290 329.895 290 331V337C290 338.105 289.105 339 288 339H245C243.895 339 243 338.105 243 337V331Z" fill="#465E82"/>
<path fill-rule="evenodd" clip-rule="evenodd" d="M378 331C378 329.895 378.895 329 380 329H532C533.105 329 534 329.895 534 331V337C534 338.105 533.105 339 532 339H380C378.895 339 378 338.105 378 337V331Z" fill="#465E82"/>
<circle cx="219" cy="334" r="7" fill="#465E82"/>
<g opacity="0.3" filter="url(#filter0_f_1301_13665)">
<rect x="226" y="284" width="371" height="31" rx="8" fill="#5772FF"/>
</g>
<rect x="214" y="267" width="388" height="31" rx="8" fill="#3959FF"/>
<path fill-rule="evenodd" clip-rule="evenodd" d="M257 280C257 278.895 257.895 278 259 278H323C324.105 278 325 278.895 325 280V286C325 287.105 324.105 288 323 288H259C257.895 288 257 287.105 257 286V280Z" fill="#8EA0FF"/>
<path fill-rule="evenodd" clip-rule="evenodd" d="M392 280C392 278.895 392.895 278 394 278H490C491.105 278 492 278.895 492 280V286C492 287.105 491.105 288 490 288H394C392.895 288 392 287.105 392 286V280Z" fill="#8EA0FF"/>
<circle cx="233" cy="283" r="7" fill="#8EA0FF"/>
<path d="M100 68.0002L99.9996 68.0002C102.378 68.0002 104.307 65.9853 104.307 63.5003C104.307 61.0149 102.378 59.0004 99.9996 59C97.6204 58.9996 95.6919 61.0145 95.6915 63.4995V63.4991C95.6912 65.9841 97.62 67.999 99.9988 67.999L100 68.0002ZM100 69.2859C97.33 69.2859 92 71.0087 92 74.4286V77H108V74.4286C108 71.0087 102.67 69.2859 100 69.2859Z" fill="#213450"/>
<path d="M354.091 324.733C344.467 358.353 311.328 382.622 276.13 389.524" stroke="#3959FF" stroke-width="2" stroke-linecap="round" stroke-dasharray="6 6"/>
<path d="M348.205 322.129C351.496 319.645 354.549 317.513 355.785 312.391C356.057 315.092 357.996 319.601 360.867 324.357" stroke="#3959FF" stroke-width="2" stroke-linecap="round" stroke-dasharray="6 6"/>
<defs>
<filter id="filter0_f_1301_13665" x="206" y="264" width="411" height="71" filterUnits="userSpaceOnUse" color-interpolation-filters="sRGB">
<feFlood flood-opacity="0" result="BackgroundImageFix"/>
<feBlend mode="normal" in="SourceGraphic" in2="BackgroundImageFix" result="shape"/>
<feGaussianBlur stdDeviation="10" result="effect1_foregroundBlur_1301_13665"/>
</filter>
</defs>
</svg>
