<svg width="661" height="405" viewBox="0 0 661 405" fill="none" xmlns="http://www.w3.org/2000/svg">
<rect width="661" height="405" fill="#6079F9"/>
<rect x="27.3578" y="123.529" width="235.63" height="255" rx="8" fill="#8498FF"/>
<rect x="291.228" y="26.4707" width="342.414" height="195" rx="8" fill="#8498FF"/>
<rect x="48.5381" y="267.354" width="194.152" height="95.2941" rx="8" fill="#F4F6FD"/>
<rect x="312.409" y="131.471" width="194.152" height="74.1177" rx="8" fill="#F4F6FD"/>
<rect x="27.3578" y="26.4707" width="235.63" height="69.7059" rx="8" fill="#8498FF"/>
<path fill-rule="evenodd" clip-rule="evenodd" d="M67.0708 205.176C67.0708 202.967 68.8617 201.176 71.0708 201.176H116.021C118.231 201.176 120.021 202.967 120.021 205.176V205.999C120.021 208.208 118.231 209.999 116.021 209.999H71.0708C68.8617 209.999 67.0708 208.208 67.0708 205.999V205.176Z" fill="#6079F9"/>
<path fill-rule="evenodd" clip-rule="evenodd" d="M67.0708 222.824C67.0708 220.615 68.8617 218.824 71.0708 218.824H116.021C118.231 218.824 120.021 220.615 120.021 222.824V223.648C120.021 225.857 118.231 227.648 116.021 227.648H71.0708C68.8617 227.648 67.0708 225.857 67.0708 223.648V222.824Z" fill="#6079F9"/>
<path fill-rule="evenodd" clip-rule="evenodd" d="M554.216 198.117C554.216 195.908 556.007 194.117 558.216 194.117H603.167C605.376 194.117 607.167 195.908 607.167 198.117V198.941C607.167 201.15 605.376 202.941 603.167 202.941H558.216C556.007 202.941 554.216 201.15 554.216 198.941V198.117Z" fill="#6079F9"/>
<path fill-rule="evenodd" clip-rule="evenodd" d="M554.216 178.705C554.216 176.496 556.007 174.705 558.216 174.705H603.167C605.376 174.705 607.167 176.496 607.167 178.705V179.529C607.167 181.738 605.376 183.529 603.167 183.529H558.216C556.007 183.529 554.216 181.738 554.216 179.529V178.705Z" fill="#6079F9"/>
<path fill-rule="evenodd" clip-rule="evenodd" d="M554.216 160.176C554.216 157.967 556.007 156.176 558.216 156.176H603.167C605.376 156.176 607.167 157.967 607.167 160.176V160.999C607.167 163.208 605.376 164.999 603.167 164.999H558.216C556.007 164.999 554.216 163.208 554.216 160.999V160.176Z" fill="#6079F9"/>
<path fill-rule="evenodd" clip-rule="evenodd" d="M554.216 141.646C554.216 139.437 556.007 137.646 558.216 137.646H603.167C605.376 137.646 607.167 139.437 607.167 141.646V142.47C607.167 144.679 605.376 146.47 603.167 146.47H558.216C556.007 146.47 554.216 144.679 554.216 142.47V141.646Z" fill="#6079F9"/>
<rect x="49.4205" y="201.176" width="8.8251" height="8.82353" rx="4.41177" fill="#6079F9"/>
<rect x="49.4205" y="218.824" width="8.8251" height="8.82353" rx="4.41177" fill="#6079F9"/>
<rect x="536.566" y="194.117" width="8.82507" height="8.82353" rx="4.41177" fill="#6079F9"/>
<rect x="536.566" y="174.705" width="8.82507" height="8.82352" rx="4.41176" fill="#6079F9"/>
<rect x="536.566" y="156.176" width="8.82507" height="8.82353" rx="4.41177" fill="#6079F9"/>
<rect x="536.566" y="137.646" width="8.82507" height="8.82352" rx="4.41176" fill="#6079F9"/>
<path fill-rule="evenodd" clip-rule="evenodd" d="M49.4205 147.824C49.4205 145.615 51.2114 143.824 53.4205 143.824H181.327C183.536 143.824 185.327 145.615 185.327 147.824V153.06C185.327 155.269 183.536 157.06 181.327 157.06H53.4205C51.2114 157.06 49.4205 155.269 49.4205 153.06V147.824Z" fill="#6079F9"/>
<path fill-rule="evenodd" clip-rule="evenodd" d="M313.291 49.8828C313.291 47.6737 315.082 45.8828 317.291 45.8828H560.806C563.016 45.8828 564.806 47.6737 564.806 49.8828V55.1181C564.806 57.3272 563.016 59.1181 560.806 59.1181H317.291C315.082 59.1181 313.291 57.3272 313.291 55.1181V49.8828Z" fill="#6079F9"/>
<path fill-rule="evenodd" clip-rule="evenodd" d="M100.606 51.6465C100.606 49.4373 102.397 47.6465 104.606 47.6465H232.513C234.722 47.6465 236.513 49.4373 236.513 51.6465V56.8818C236.513 59.0909 234.722 60.8818 232.513 60.8818H104.606C102.397 60.8818 100.606 59.0909 100.606 56.8818V51.6465Z" fill="#F4F6FD"/>
<path fill-rule="evenodd" clip-rule="evenodd" d="M49.4205 167.883C49.4205 166.778 50.316 165.883 51.4205 165.883H124.199C125.303 165.883 126.199 166.778 126.199 167.883V172.706C126.199 173.811 125.303 174.706 124.199 174.706H51.4205C50.316 174.706 49.4205 173.811 49.4205 172.706V167.883Z" fill="#F4F6FD"/>
<path fill-rule="evenodd" clip-rule="evenodd" d="M313.291 69.9414C313.291 68.8368 314.186 67.9414 315.291 67.9414H493.971C495.075 67.9414 495.971 68.8368 495.971 69.9414V74.7649C495.971 75.8695 495.075 76.7649 493.971 76.7649H315.291C314.186 76.7649 313.291 75.8695 313.291 74.7649V69.9414Z" fill="#F4F6FD"/>
<path fill-rule="evenodd" clip-rule="evenodd" d="M313.291 87.5879C313.291 86.4833 314.186 85.5879 315.291 85.5879H398.66C399.764 85.5879 400.66 86.4833 400.66 87.5879V92.4114C400.66 93.516 399.764 94.4114 398.66 94.4114H315.291C314.186 94.4114 313.291 93.516 313.291 92.4114V87.5879Z" fill="#F4F6FD"/>
<path fill-rule="evenodd" clip-rule="evenodd" d="M100.606 68.1758C100.606 67.0712 101.502 66.1758 102.606 66.1758H175.385C176.489 66.1758 177.385 67.0712 177.385 68.1758V72.9993C177.385 74.1039 176.489 74.9993 175.385 74.9993H102.606C101.502 74.9993 100.606 74.1039 100.606 72.9993V68.1758Z" fill="#F4F6FD"/>
<path fill-rule="evenodd" clip-rule="evenodd" d="M49.4205 183.766C49.4205 182.661 50.316 181.766 51.4205 181.766H150.674C151.779 181.766 152.674 182.661 152.674 183.766V188.589C152.674 189.694 151.779 190.589 150.674 190.589H51.4205C50.316 190.589 49.4205 189.694 49.4205 188.589V183.766Z" fill="#F4F6FD"/>
<path fill-rule="evenodd" clip-rule="evenodd" d="M62.0107 354.707C60.9062 354.707 60.0107 353.812 60.0107 352.707L60.0107 335.531C60.0107 334.426 60.9062 333.531 62.0107 333.531L66.53 333.531C67.6346 333.531 68.53 334.426 68.53 335.531L68.53 352.707C68.53 353.812 67.6346 354.707 66.53 354.707L62.0107 354.707Z" fill="#6079F9"/>
<path fill-rule="evenodd" clip-rule="evenodd" d="M116.534 354.707C115.43 354.707 114.534 353.812 114.534 352.707L114.534 335.531C114.534 334.426 115.43 333.531 116.534 333.531L121.053 333.531C122.158 333.531 123.053 334.426 123.053 335.531L123.053 352.707C123.053 353.812 122.158 354.707 121.053 354.707L116.534 354.707Z" fill="#6079F9"/>
<path fill-rule="evenodd" clip-rule="evenodd" d="M171.057 354.707C169.953 354.707 169.057 353.812 169.057 352.707L169.057 302.001C169.057 300.897 169.953 300.001 171.057 300.001L175.577 300.001C176.681 300.001 177.577 300.897 177.577 302.001L177.577 352.707C177.577 353.812 176.681 354.707 175.577 354.707L171.057 354.707Z" fill="#6079F9"/>
<path fill-rule="evenodd" clip-rule="evenodd" d="M75.6414 354.707C74.5368 354.707 73.6414 353.812 73.6414 352.707L73.6414 321.413C73.6414 320.308 74.5368 319.413 75.6414 319.413L80.1606 319.413C81.2652 319.413 82.1606 320.308 82.1606 321.413L82.1606 352.707C82.1606 353.812 81.2652 354.707 80.1606 354.707L75.6414 354.707Z" fill="#6079F9"/>
<path fill-rule="evenodd" clip-rule="evenodd" d="M130.165 354.707C129.061 354.707 128.165 353.812 128.165 352.707L128.165 314.354C128.165 313.25 129.061 312.354 130.165 312.354L134.684 312.354C135.789 312.354 136.684 313.25 136.684 314.354L136.684 352.707C136.684 353.812 135.789 354.707 134.684 354.707L130.165 354.707Z" fill="#6079F9"/>
<path fill-rule="evenodd" clip-rule="evenodd" d="M184.688 354.707C183.584 354.707 182.688 353.812 182.688 352.707L182.688 321.413C182.688 320.308 183.584 319.413 184.688 319.413L189.208 319.413C190.312 319.413 191.208 320.308 191.208 321.413L191.208 352.707C191.208 353.812 190.312 354.707 189.208 354.707L184.688 354.707Z" fill="#6079F9"/>
<path fill-rule="evenodd" clip-rule="evenodd" d="M89.2727 354.707C88.1681 354.707 87.2727 353.812 87.2727 352.707L87.2727 335.531C87.2727 334.426 88.1681 333.531 89.2727 333.531L93.792 333.531C94.8965 333.531 95.792 334.426 95.792 335.531L95.792 352.707C95.792 353.812 94.8965 354.707 93.792 354.707L89.2727 354.707Z" fill="#6079F9"/>
<path fill-rule="evenodd" clip-rule="evenodd" d="M143.796 354.707C142.692 354.707 141.796 353.812 141.796 352.707L141.796 324.06C141.796 322.955 142.692 322.06 143.796 322.06L148.315 322.06C149.42 322.06 150.315 322.955 150.315 324.06L150.315 352.707C150.315 353.812 149.42 354.707 148.315 354.707L143.796 354.707Z" fill="#6079F9"/>
<path fill-rule="evenodd" clip-rule="evenodd" d="M198.319 354.707C197.214 354.707 196.319 353.812 196.319 352.707L196.319 306.413C196.319 305.308 197.214 304.413 198.319 304.413L202.838 304.413C203.943 304.413 204.838 305.308 204.838 306.413L204.838 352.707C204.838 353.812 203.943 354.707 202.838 354.707L198.319 354.707Z" fill="#6079F9"/>
<path fill-rule="evenodd" clip-rule="evenodd" d="M211.95 354.707C210.846 354.707 209.95 353.812 209.95 352.707L209.95 297.589C209.95 296.485 210.846 295.589 211.95 295.589L216.469 295.589C217.574 295.589 218.469 296.485 218.469 297.589L218.469 352.707C218.469 353.812 217.574 354.707 216.469 354.707L211.95 354.707Z" fill="#6079F9"/>
<path fill-rule="evenodd" clip-rule="evenodd" d="M102.903 354.707C101.799 354.707 100.903 353.812 100.903 352.707L100.903 304.648C100.903 303.544 101.799 302.648 102.903 302.648L107.422 302.648C108.527 302.648 109.422 303.544 109.422 304.648L109.422 352.707C109.422 353.812 108.527 354.707 107.422 354.707L102.903 354.707Z" fill="#6079F9"/>
<path fill-rule="evenodd" clip-rule="evenodd" d="M157.426 354.707C156.322 354.707 155.426 353.812 155.426 352.707L155.426 294.06C155.426 292.955 156.322 292.06 157.426 292.06L161.946 292.06C163.05 292.06 163.946 292.955 163.946 294.06L163.946 352.707C163.946 353.812 163.05 354.707 161.946 354.707L157.426 354.707Z" fill="#6079F9"/>
<path fill-rule="evenodd" clip-rule="evenodd" d="M225.581 354.707C224.476 354.707 223.581 353.812 223.581 352.707L223.581 280.825C223.581 279.72 224.476 278.825 225.581 278.825L230.1 278.825C231.205 278.825 232.1 279.72 232.1 280.825L232.1 352.707C232.1 353.812 231.205 354.707 230.1 354.707L225.581 354.707Z" fill="#6079F9"/>
<path fill-rule="evenodd" clip-rule="evenodd" d="M325.881 197.646C324.777 197.646 323.881 196.751 323.881 195.646L323.881 189.304C323.881 188.2 324.777 187.304 325.881 187.304L330.401 187.304C331.505 187.304 332.401 188.2 332.401 189.304L332.401 195.646C332.401 196.751 331.505 197.646 330.401 197.646L325.881 197.646Z" fill="#6079F9"/>
<path fill-rule="evenodd" clip-rule="evenodd" d="M380.405 197.646C379.3 197.646 378.405 196.751 378.405 195.646L378.405 189.304C378.405 188.2 379.3 187.304 380.405 187.304L384.924 187.304C386.029 187.304 386.924 188.2 386.924 189.304L386.924 195.646C386.924 196.751 386.029 197.646 384.924 197.646L380.405 197.646Z" fill="#6079F9"/>
<path fill-rule="evenodd" clip-rule="evenodd" d="M434.928 197.646C433.823 197.646 432.928 196.751 432.928 195.646L432.928 172.93C432.928 171.825 433.823 170.93 434.928 170.93L439.447 170.93C440.551 170.93 441.447 171.825 441.447 172.93L441.447 195.646C441.447 196.751 440.551 197.646 439.447 197.646L434.928 197.646Z" fill="#6079F9"/>
<path fill-rule="evenodd" clip-rule="evenodd" d="M339.512 197.646C338.407 197.646 337.512 196.751 337.512 195.646L337.512 182.41C337.512 181.305 338.407 180.41 339.512 180.41L344.031 180.41C345.136 180.41 346.031 181.305 346.031 182.41L346.031 195.646C346.031 196.751 345.136 197.646 344.031 197.646L339.512 197.646Z" fill="#6079F9"/>
<path fill-rule="evenodd" clip-rule="evenodd" d="M394.036 197.646C392.931 197.646 392.036 196.751 392.036 195.646L392.036 178.962C392.036 177.858 392.931 176.962 394.036 176.962L398.555 176.962C399.659 176.962 400.555 177.858 400.555 178.962L400.555 195.646C400.555 196.751 399.659 197.646 398.555 197.646L394.036 197.646Z" fill="#6079F9"/>
<path fill-rule="evenodd" clip-rule="evenodd" d="M448.559 197.646C447.454 197.646 446.559 196.751 446.559 195.646L446.559 182.41C446.559 181.305 447.454 180.41 448.559 180.41L453.078 180.41C454.183 180.41 455.078 181.305 455.078 182.41L455.078 195.646C455.078 196.751 454.183 197.646 453.078 197.646L448.559 197.646Z" fill="#6079F9"/>
<path fill-rule="evenodd" clip-rule="evenodd" d="M353.143 197.646C352.038 197.646 351.143 196.751 351.143 195.646L351.143 189.304C351.143 188.2 352.038 187.304 353.143 187.304L357.662 187.304C358.767 187.304 359.662 188.2 359.662 189.304L359.662 195.646C359.662 196.751 358.767 197.646 357.662 197.646L353.143 197.646Z" fill="#6079F9"/>
<path fill-rule="evenodd" clip-rule="evenodd" d="M407.667 197.646C406.562 197.646 405.667 196.751 405.667 195.646L405.667 183.703C405.667 182.598 406.562 181.703 407.667 181.703L412.186 181.703C413.291 181.703 414.186 182.598 414.186 183.703L414.186 195.646C414.186 196.751 413.291 197.646 412.186 197.646L407.667 197.646Z" fill="#6079F9"/>
<path fill-rule="evenodd" clip-rule="evenodd" d="M462.189 197.646C461.085 197.646 460.189 196.751 460.189 195.646L460.189 175.084C460.189 173.98 461.085 173.084 462.189 173.084L466.709 173.084C467.813 173.084 468.709 173.98 468.709 175.084L468.709 195.646C468.709 196.751 467.813 197.646 466.709 197.646L462.189 197.646Z" fill="#6079F9"/>
<path fill-rule="evenodd" clip-rule="evenodd" d="M475.82 197.646C474.716 197.646 473.82 196.751 473.82 195.646L473.82 170.775C473.82 169.671 474.716 168.775 475.82 168.775L480.34 168.775C481.444 168.775 482.34 169.67 482.34 170.775L482.34 195.646C482.34 196.751 481.444 197.646 480.34 197.646L475.82 197.646Z" fill="#6079F9"/>
<path fill-rule="evenodd" clip-rule="evenodd" d="M366.774 197.646C365.669 197.646 364.774 196.751 364.774 195.646L364.774 174.222C364.774 173.118 365.669 172.222 366.774 172.222L371.293 172.222C372.397 172.222 373.293 173.118 373.293 174.222L373.293 195.646C373.293 196.751 372.397 197.646 371.293 197.646L366.774 197.646Z" fill="#6079F9"/>
<path fill-rule="evenodd" clip-rule="evenodd" d="M421.297 197.646C420.192 197.646 419.297 196.751 419.297 195.646L419.297 169.051C419.297 167.947 420.192 167.051 421.297 167.051L425.816 167.051C426.92 167.051 427.816 167.947 427.816 169.051L427.816 195.646C427.816 196.751 426.92 197.646 425.816 197.646L421.297 197.646Z" fill="#6079F9"/>
<path fill-rule="evenodd" clip-rule="evenodd" d="M489.451 197.646C488.346 197.646 487.451 196.751 487.451 195.646L487.451 162.588C487.451 161.483 488.346 160.588 489.451 160.588L493.97 160.588C495.075 160.588 495.97 161.483 495.97 162.588L495.97 195.646C495.97 196.751 495.075 197.646 493.97 197.646L489.451 197.646Z" fill="#6079F9"/>
<ellipse cx="68.3946" cy="62.2054" rx="18.0915" ry="18.0882" fill="#6079F9"/>
<rect x="291.228" y="351.176" width="342.414" height="27.353" rx="8" fill="#8498FF"/>
<path fill-rule="evenodd" clip-rule="evenodd" d="M329.176 362.881C329.176 361.776 330.072 360.881 331.176 360.881H380.127C381.231 360.881 382.127 361.776 382.127 362.881V367.704C382.127 368.809 381.231 369.704 380.127 369.704H331.176C330.072 369.704 329.176 368.809 329.176 367.704V362.881Z" fill="#6079F9"/>
<path fill-rule="evenodd" clip-rule="evenodd" d="M448.315 362.881C448.315 361.776 449.21 360.881 450.315 360.881H548.686C549.791 360.881 550.686 361.776 550.686 362.881V367.704C550.686 368.809 549.791 369.704 548.686 369.704H450.315C449.21 369.704 448.315 368.809 448.315 367.704V362.881Z" fill="#6079F9"/>
<ellipse cx="307.996" cy="365.294" rx="6.17757" ry="6.17648" fill="#6079F9"/>
<rect x="291.228" y="315.883" width="342.414" height="27.3529" rx="8" fill="#8498FF"/>
<path fill-rule="evenodd" clip-rule="evenodd" d="M329.176 327.588C329.176 326.483 330.072 325.588 331.176 325.588H357.182C358.286 325.588 359.182 326.483 359.182 327.588V332.411C359.182 333.516 358.286 334.411 357.182 334.411H331.176C330.072 334.411 329.176 333.516 329.176 332.411V327.588Z" fill="#6079F9"/>
<path fill-rule="evenodd" clip-rule="evenodd" d="M448.315 327.588C448.315 326.483 449.21 325.588 450.315 325.588H505.443C506.548 325.588 507.443 326.483 507.443 327.588V332.411C507.443 333.516 506.548 334.411 505.443 334.411H450.315C449.21 334.411 448.315 333.516 448.315 332.411V327.588Z" fill="#6079F9"/>
<ellipse cx="307.996" cy="330.001" rx="6.17757" ry="6.17648" fill="#6079F9"/>
<rect x="291.228" y="280.588" width="342.414" height="27.3529" rx="8" fill="#8498FF"/>
<path fill-rule="evenodd" clip-rule="evenodd" d="M329.176 292.293C329.176 291.188 330.072 290.293 331.176 290.293H368.654C369.759 290.293 370.654 291.188 370.654 292.293V297.116C370.654 298.221 369.759 299.116 368.654 299.116H331.176C330.072 299.116 329.176 298.221 329.176 297.116V292.293Z" fill="#6079F9"/>
<path fill-rule="evenodd" clip-rule="evenodd" d="M448.315 292.293C448.315 291.188 449.21 290.293 450.315 290.293H583.987C585.091 290.293 585.987 291.188 585.987 292.293V297.116C585.987 298.221 585.091 299.116 583.987 299.116H450.315C449.21 299.116 448.315 298.221 448.315 297.116V292.293Z" fill="#6079F9"/>
<ellipse cx="307.996" cy="294.706" rx="6.17757" ry="6.17647" fill="#6079F9"/>
<rect x="291.228" y="245.295" width="342.414" height="27.353" rx="8" fill="#8498FF"/>
<path fill-rule="evenodd" clip-rule="evenodd" d="M329.176 257C329.176 255.895 330.072 255 331.176 255H387.187C388.292 255 389.187 255.895 389.187 257V261.824C389.187 262.928 388.292 263.824 387.187 263.824H331.176C330.072 263.824 329.176 262.928 329.176 261.824V257Z" fill="#6079F9"/>
<path fill-rule="evenodd" clip-rule="evenodd" d="M448.315 257C448.315 255.895 449.21 255 450.315 255H534.566C535.671 255 536.566 255.895 536.566 257V261.824C536.566 262.928 535.671 263.824 534.566 263.824H450.315C449.21 263.824 448.315 262.928 448.315 261.824V257Z" fill="#6079F9"/>
<ellipse cx="307.996" cy="259.413" rx="6.17757" ry="6.17647" fill="#6079F9"/>
<path d="M68.8358 61.7656L68.8355 61.7656C70.9349 61.7656 72.6371 59.9877 72.6371 57.7951C72.6371 55.6021 70.9349 53.8246 68.8355 53.8242C66.7358 53.8239 65.0339 55.6017 65.0336 57.7944V57.794C65.0332 59.9866 66.7355 61.7645 68.8348 61.7645L68.8358 61.7656ZM68.8358 62.9C66.4795 62.9 61.7758 64.4201 61.7758 67.4377V69.7066H75.8959V67.4377C75.8959 64.4201 71.1921 62.9 68.8358 62.9Z" fill="#F4F6FD"/>
</svg>
